<svg width="500" height="144" viewBox="0 0 500 144" fill="none" xmlns="http://www.w3.org/2000/svg">
<g clip-path="url(#clip0_33_29)">
<rect y="12" width="500" height="120" rx="60" fill="#FFB7C5"/>
<path d="M78 82L65.5 69.5L69 65.875L75.5 72.375V52H80.5V72.375L87 65.875L90.5 69.5L78 82ZM63 92C61.625 92 60.4479 91.5104 59.4688 90.5313C58.4896 89.5521 58 88.375 58 87V79.5H63V87H93V79.5H98V87C98 88.375 97.5104 89.5521 96.5313 90.5313C95.5521 91.5104 94.375 92 93 92H63Z" fill="#FFB7C5"/>
<path d="M146.232 72.5059H138.624L138.583 68.7529H145.228C146.349 68.7529 147.299 68.5889 148.078 68.2607C148.871 67.9189 149.473 67.4336 149.883 66.8047C150.293 66.1621 150.498 65.3896 150.498 64.4873C150.498 63.4893 150.307 62.6758 149.924 62.0469C149.541 61.418 148.953 60.96 148.16 60.6729C147.381 60.3857 146.383 60.2422 145.166 60.2422H140.183V86H135.035V56.1406H145.166C146.807 56.1406 148.27 56.2979 149.555 56.6123C150.854 56.9268 151.954 57.4189 152.856 58.0889C153.772 58.7451 154.463 59.5791 154.928 60.5908C155.406 61.6025 155.646 62.8057 155.646 64.2002C155.646 65.4307 155.352 66.5586 154.764 67.584C154.176 68.5957 153.308 69.4229 152.159 70.0654C151.011 70.708 149.582 71.0908 147.873 71.2139L146.232 72.5059ZM146.007 86H137.004L139.321 81.9189H146.007C147.169 81.9189 148.14 81.7275 148.919 81.3447C149.698 80.9482 150.279 80.4082 150.662 79.7246C151.059 79.0273 151.257 78.2139 151.257 77.2842C151.257 76.3135 151.086 75.4727 150.744 74.7617C150.402 74.0371 149.862 73.4834 149.124 73.1006C148.386 72.7041 147.422 72.5059 146.232 72.5059H140.449L140.49 68.7529H148.017L149.186 70.168C150.826 70.2227 152.173 70.585 153.226 71.2549C154.292 71.9248 155.085 72.793 155.604 73.8594C156.124 74.9258 156.384 76.0742 156.384 77.3047C156.384 79.2051 155.967 80.7979 155.133 82.083C154.312 83.3682 153.13 84.3457 151.585 85.0156C150.04 85.6719 148.181 86 146.007 86ZM174.731 80.7705V63.8105H179.694V86H175.018L174.731 80.7705ZM175.428 76.1562L177.089 76.1152C177.089 77.6055 176.925 78.9795 176.597 80.2373C176.269 81.4814 175.763 82.5684 175.079 83.498C174.396 84.4141 173.521 85.1318 172.454 85.6514C171.388 86.1572 170.11 86.4102 168.619 86.4102C167.539 86.4102 166.548 86.2529 165.646 85.9385C164.743 85.624 163.964 85.1387 163.308 84.4824C162.665 83.8262 162.166 82.9717 161.811 81.9189C161.455 80.8662 161.278 79.6084 161.278 78.1455V63.8105H166.22V78.1865C166.22 78.9932 166.316 79.6699 166.507 80.2168C166.698 80.75 166.958 81.1807 167.286 81.5088C167.614 81.8369 167.997 82.0693 168.435 82.2061C168.872 82.3428 169.337 82.4111 169.829 82.4111C171.237 82.4111 172.345 82.1377 173.152 81.5908C173.972 81.0303 174.553 80.2783 174.895 79.335C175.25 78.3916 175.428 77.332 175.428 76.1562ZM191.498 83.5801L197.528 63.8105H202.819L193.918 89.3838C193.713 89.9307 193.447 90.5254 193.119 91.168C192.79 91.8105 192.36 92.4189 191.827 92.9932C191.307 93.5811 190.658 94.0527 189.878 94.4082C189.099 94.7773 188.156 94.9619 187.048 94.9619C186.611 94.9619 186.187 94.9209 185.777 94.8389C185.38 94.7705 185.004 94.6953 184.649 94.6133L184.628 90.8398C184.765 90.8535 184.929 90.8672 185.121 90.8809C185.326 90.8945 185.49 90.9014 185.613 90.9014C186.433 90.9014 187.117 90.7988 187.663 90.5938C188.21 90.4023 188.655 90.0879 188.996 89.6504C189.352 89.2129 189.653 88.625 189.899 87.8867L191.498 83.5801ZM188.094 63.8105L193.365 80.4219L194.246 85.6309L190.822 86.5127L182.762 63.8105H188.094ZM221.65 68.3223V86H216.708V63.8105H221.363L221.65 68.3223ZM220.85 74.085L219.169 74.0645C219.169 72.5332 219.36 71.1182 219.743 69.8193C220.126 68.5205 220.686 67.3926 221.425 66.4355C222.163 65.4648 223.079 64.7197 224.173 64.2002C225.28 63.667 226.558 63.4004 228.008 63.4004C229.019 63.4004 229.942 63.5508 230.776 63.8516C231.624 64.1387 232.355 64.5967 232.971 65.2256C233.599 65.8545 234.078 66.6611 234.406 67.6455C234.748 68.6299 234.919 69.8193 234.919 71.2139V86H229.976V71.6445C229.976 70.5645 229.812 69.7168 229.484 69.1016C229.17 68.4863 228.712 68.0488 228.11 67.7891C227.522 67.5156 226.818 67.3789 225.998 67.3789C225.068 67.3789 224.275 67.5566 223.619 67.9121C222.976 68.2676 222.45 68.7529 222.04 69.3682C221.63 69.9834 221.329 70.6943 221.137 71.501C220.946 72.3076 220.85 73.1689 220.85 74.085ZM234.611 72.7725L232.294 73.2852C232.294 71.9453 232.478 70.6807 232.847 69.4912C233.23 68.2881 233.784 67.2354 234.509 66.333C235.247 65.417 236.156 64.6992 237.236 64.1797C238.316 63.6602 239.554 63.4004 240.948 63.4004C242.083 63.4004 243.095 63.5576 243.983 63.8721C244.886 64.1729 245.651 64.6514 246.28 65.3076C246.909 65.9639 247.387 66.8184 247.716 67.8711C248.044 68.9102 248.208 70.168 248.208 71.6445V86H243.245V71.624C243.245 70.5029 243.081 69.6348 242.753 69.0195C242.438 68.4043 241.987 67.9805 241.399 67.748C240.811 67.502 240.107 67.3789 239.287 67.3789C238.521 67.3789 237.845 67.5225 237.257 67.8096C236.682 68.083 236.197 68.4727 235.801 68.9785C235.404 69.4707 235.103 70.0381 234.898 70.6807C234.707 71.3232 234.611 72.0205 234.611 72.7725ZM263.376 86.4102C261.735 86.4102 260.252 86.1436 258.926 85.6104C257.613 85.0635 256.492 84.3047 255.562 83.334C254.646 82.3633 253.942 81.2217 253.45 79.9092C252.958 78.5967 252.712 77.1816 252.712 75.6641V74.8438C252.712 73.1074 252.965 71.5352 253.471 70.127C253.977 68.7188 254.681 67.5156 255.583 66.5176C256.485 65.5059 257.552 64.7334 258.782 64.2002C260.013 63.667 261.346 63.4004 262.781 63.4004C264.367 63.4004 265.755 63.667 266.944 64.2002C268.134 64.7334 269.118 65.4854 269.897 66.4561C270.69 67.4131 271.278 68.5547 271.661 69.8809C272.058 71.207 272.256 72.6699 272.256 74.2695V76.3818H255.111V72.834H267.375V72.4443C267.348 71.5557 267.17 70.7217 266.842 69.9424C266.527 69.1631 266.042 68.5342 265.386 68.0557C264.729 67.5771 263.854 67.3379 262.761 67.3379C261.94 67.3379 261.209 67.5156 260.566 67.8711C259.938 68.2129 259.411 68.7119 258.987 69.3682C258.563 70.0244 258.235 70.8174 258.003 71.7471C257.784 72.6631 257.675 73.6953 257.675 74.8438V75.6641C257.675 76.6348 257.805 77.5371 258.064 78.3711C258.338 79.1914 258.734 79.9092 259.254 80.5244C259.773 81.1396 260.402 81.625 261.141 81.9805C261.879 82.3223 262.72 82.4932 263.663 82.4932C264.853 82.4932 265.912 82.2539 266.842 81.7754C267.771 81.2969 268.578 80.6201 269.262 79.7451L271.866 82.2676C271.388 82.9648 270.766 83.6348 270 84.2773C269.234 84.9062 268.298 85.4189 267.19 85.8154C266.097 86.2119 264.825 86.4102 263.376 86.4102ZM299.68 81.5498V70.9678C299.68 70.1748 299.537 69.4912 299.249 68.917C298.962 68.3428 298.525 67.8984 297.937 67.584C297.363 67.2695 296.638 67.1123 295.763 67.1123C294.956 67.1123 294.259 67.249 293.671 67.5225C293.083 67.7959 292.625 68.165 292.297 68.6299C291.969 69.0947 291.805 69.6211 291.805 70.209H286.883C286.883 69.334 287.095 68.4863 287.519 67.666C287.943 66.8457 288.558 66.1143 289.365 65.4717C290.171 64.8291 291.135 64.3232 292.256 63.9541C293.377 63.585 294.635 63.4004 296.03 63.4004C297.698 63.4004 299.174 63.6807 300.459 64.2412C301.758 64.8018 302.777 65.6494 303.515 66.7842C304.267 67.9053 304.643 69.3135 304.643 71.0088V80.873C304.643 81.8848 304.711 82.7939 304.848 83.6006C304.998 84.3936 305.21 85.084 305.484 85.6719V86H300.418C300.186 85.4668 300.001 84.79 299.865 83.9697C299.742 83.1357 299.68 82.3291 299.68 81.5498ZM300.398 72.5059L300.439 75.5615H296.891C295.975 75.5615 295.168 75.6504 294.471 75.8281C293.774 75.9922 293.193 76.2383 292.728 76.5664C292.263 76.8945 291.914 77.291 291.682 77.7559C291.45 78.2207 291.333 78.7471 291.333 79.335C291.333 79.9229 291.47 80.4629 291.744 80.9551C292.017 81.4336 292.413 81.8096 292.933 82.083C293.466 82.3564 294.109 82.4932 294.861 82.4932C295.872 82.4932 296.754 82.2881 297.506 81.8779C298.272 81.4541 298.873 80.9414 299.311 80.3398C299.748 79.7246 299.981 79.1436 300.008 78.5967L301.608 80.791C301.444 81.3516 301.163 81.9531 300.767 82.5957C300.371 83.2383 299.851 83.8535 299.208 84.4414C298.579 85.0156 297.821 85.4873 296.932 85.8564C296.057 86.2256 295.045 86.4102 293.897 86.4102C292.448 86.4102 291.156 86.123 290.021 85.5488C288.886 84.9609 287.997 84.1748 287.355 83.1904C286.712 82.1924 286.391 81.0645 286.391 79.8066C286.391 78.6309 286.61 77.5918 287.047 76.6895C287.498 75.7734 288.155 75.0078 289.016 74.3926C289.891 73.7773 290.957 73.3125 292.215 72.998C293.473 72.6699 294.909 72.5059 296.522 72.5059H300.398ZM329.934 82.4727C330.741 82.4727 331.466 82.3154 332.108 82.001C332.764 81.6729 333.291 81.2217 333.687 80.6475C334.097 80.0732 334.323 79.4102 334.364 78.6582H339.019C338.992 80.0938 338.568 81.3994 337.748 82.5752C336.928 83.751 335.841 84.6875 334.487 85.3848C333.134 86.0684 331.637 86.4102 329.996 86.4102C328.301 86.4102 326.824 86.123 325.566 85.5488C324.308 84.9609 323.262 84.1543 322.429 83.1289C321.595 82.1035 320.966 80.9209 320.542 79.5811C320.132 78.2412 319.927 76.8057 319.927 75.2744V74.5566C319.927 73.0254 320.132 71.5898 320.542 70.25C320.966 68.8965 321.595 67.707 322.429 66.6816C323.262 65.6562 324.308 64.8564 325.566 64.2822C326.824 63.6943 328.294 63.4004 329.975 63.4004C331.753 63.4004 333.311 63.7559 334.651 64.4668C335.991 65.1641 337.044 66.1416 337.809 67.3994C338.589 68.6436 338.992 70.0928 339.019 71.7471H334.364C334.323 70.9268 334.118 70.1885 333.749 69.5322C333.393 68.8623 332.887 68.3291 332.231 67.9326C331.589 67.5361 330.816 67.3379 329.914 67.3379C328.916 67.3379 328.089 67.543 327.432 67.9531C326.776 68.3496 326.263 68.8965 325.894 69.5938C325.525 70.2773 325.259 71.0498 325.095 71.9111C324.944 72.7588 324.869 73.6406 324.869 74.5566V75.2744C324.869 76.1904 324.944 77.0791 325.095 77.9404C325.245 78.8018 325.505 79.5742 325.874 80.2578C326.257 80.9277 326.776 81.4678 327.432 81.8779C328.089 82.2744 328.923 82.4727 329.934 82.4727ZM342.17 75.1514V74.6797C342.17 73.0801 342.402 71.5967 342.867 70.2295C343.332 68.8486 344.002 67.6523 344.877 66.6406C345.766 65.6152 346.846 64.8223 348.117 64.2617C349.402 63.6875 350.852 63.4004 352.465 63.4004C354.092 63.4004 355.541 63.6875 356.812 64.2617C358.098 64.8223 359.185 65.6152 360.073 66.6406C360.962 67.6523 361.639 68.8486 362.104 70.2295C362.568 71.5967 362.801 73.0801 362.801 74.6797V75.1514C362.801 76.751 362.568 78.2344 362.104 79.6016C361.639 80.9688 360.962 82.165 360.073 83.1904C359.185 84.2021 358.104 84.9951 356.833 85.5693C355.562 86.1299 354.119 86.4102 352.506 86.4102C350.879 86.4102 349.423 86.1299 348.138 85.5693C346.866 84.9951 345.786 84.2021 344.897 83.1904C344.009 82.165 343.332 80.9688 342.867 79.6016C342.402 78.2344 342.17 76.751 342.17 75.1514ZM347.112 74.6797V75.1514C347.112 76.1494 347.215 77.0928 347.42 77.9814C347.625 78.8701 347.946 79.6494 348.384 80.3193C348.821 80.9893 349.382 81.5156 350.065 81.8984C350.749 82.2812 351.562 82.4727 352.506 82.4727C353.422 82.4727 354.215 82.2812 354.885 81.8984C355.568 81.5156 356.129 80.9893 356.566 80.3193C357.004 79.6494 357.325 78.8701 357.53 77.9814C357.749 77.0928 357.858 76.1494 357.858 75.1514V74.6797C357.858 73.6953 357.749 72.7656 357.53 71.8906C357.325 71.002 356.997 70.2158 356.546 69.5322C356.108 68.8486 355.548 68.3154 354.864 67.9326C354.194 67.5361 353.395 67.3379 352.465 67.3379C351.535 67.3379 350.729 67.5361 350.045 67.9326C349.375 68.3154 348.821 68.8486 348.384 69.5322C347.946 70.2158 347.625 71.002 347.42 71.8906C347.215 72.7656 347.112 73.6953 347.112 74.6797ZM373.929 86H368.987V61.6777C368.987 60.0234 369.294 58.6357 369.909 57.5146C370.538 56.3799 371.434 55.5254 372.596 54.9512C373.758 54.3633 375.132 54.0693 376.718 54.0693C377.21 54.0693 377.696 54.1035 378.174 54.1719C378.653 54.2266 379.117 54.3154 379.569 54.4385L379.446 58.2529C379.172 58.1846 378.871 58.1367 378.543 58.1094C378.229 58.082 377.887 58.0684 377.518 58.0684C376.766 58.0684 376.116 58.2119 375.57 58.499C375.036 58.7725 374.626 59.1758 374.339 59.709C374.066 60.2422 373.929 60.8984 373.929 61.6777V86ZM378.502 63.8105V67.4199H365.582V63.8105H378.502ZM389.077 86H384.134V61.6777C384.134 60.0234 384.442 58.6357 385.057 57.5146C385.686 56.3799 386.581 55.5254 387.744 54.9512C388.906 54.3633 390.28 54.0693 391.866 54.0693C392.358 54.0693 392.843 54.1035 393.322 54.1719C393.8 54.2266 394.265 54.3154 394.716 54.4385L394.593 58.2529C394.32 58.1846 394.019 58.1367 393.691 58.1094C393.376 58.082 393.035 58.0684 392.665 58.0684C391.913 58.0684 391.264 58.2119 390.717 58.499C390.184 58.7725 389.774 59.1758 389.487 59.709C389.213 60.2422 389.077 60.8984 389.077 61.6777V86ZM393.65 63.8105V67.4199H380.73V63.8105H393.65ZM406.829 86.4102C405.188 86.4102 403.705 86.1436 402.379 85.6104C401.066 85.0635 399.945 84.3047 399.015 83.334C398.099 82.3633 397.395 81.2217 396.903 79.9092C396.411 78.5967 396.165 77.1816 396.165 75.6641V74.8438C396.165 73.1074 396.418 71.5352 396.923 70.127C397.429 68.7188 398.133 67.5156 399.036 66.5176C399.938 65.5059 401.004 64.7334 402.235 64.2002C403.465 63.667 404.798 63.4004 406.234 63.4004C407.82 63.4004 409.208 63.667 410.397 64.2002C411.587 64.7334 412.571 65.4854 413.35 66.4561C414.143 67.4131 414.731 68.5547 415.114 69.8809C415.51 71.207 415.709 72.6699 415.709 74.2695V76.3818H398.564V72.834H410.828V72.4443C410.8 71.5557 410.623 70.7217 410.295 69.9424C409.98 69.1631 409.495 68.5342 408.838 68.0557C408.182 67.5771 407.307 67.3379 406.213 67.3379C405.393 67.3379 404.662 67.5156 404.019 67.8711C403.39 68.2129 402.864 68.7119 402.44 69.3682C402.016 70.0244 401.688 70.8174 401.456 71.7471C401.237 72.6631 401.128 73.6953 401.128 74.8438V75.6641C401.128 76.6348 401.257 77.5371 401.517 78.3711C401.791 79.1914 402.187 79.9092 402.707 80.5244C403.226 81.1396 403.855 81.625 404.593 81.9805C405.332 82.3223 406.172 82.4932 407.116 82.4932C408.305 82.4932 409.365 82.2539 410.295 81.7754C411.224 81.2969 412.031 80.6201 412.714 79.7451L415.319 82.2676C414.84 82.9648 414.218 83.6348 413.453 84.2773C412.687 84.9062 411.751 85.4189 410.643 85.8154C409.549 86.2119 408.278 86.4102 406.829 86.4102ZM429.646 86.4102C428.006 86.4102 426.522 86.1436 425.196 85.6104C423.884 85.0635 422.763 84.3047 421.833 83.334C420.917 82.3633 420.213 81.2217 419.721 79.9092C419.228 78.5967 418.982 77.1816 418.982 75.6641V74.8438C418.982 73.1074 419.235 71.5352 419.741 70.127C420.247 68.7188 420.951 67.5156 421.853 66.5176C422.756 65.5059 423.822 64.7334 425.053 64.2002C426.283 63.667 427.616 63.4004 429.052 63.4004C430.638 63.4004 432.025 63.667 433.215 64.2002C434.404 64.7334 435.388 65.4854 436.168 66.4561C436.961 67.4131 437.549 68.5547 437.931 69.8809C438.328 71.207 438.526 72.6699 438.526 74.2695V76.3818H421.382V72.834H433.645V72.4443C433.618 71.5557 433.44 70.7217 433.112 69.9424C432.798 69.1631 432.312 68.5342 431.656 68.0557C431 67.5771 430.125 67.3379 429.031 67.3379C428.211 67.3379 427.479 67.5156 426.837 67.8711C426.208 68.2129 425.681 68.7119 425.258 69.3682C424.834 70.0244 424.506 70.8174 424.273 71.7471C424.055 72.6631 423.945 73.6953 423.945 74.8438V75.6641C423.945 76.6348 424.075 77.5371 424.335 78.3711C424.608 79.1914 425.005 79.9092 425.524 80.5244C426.044 81.1396 426.673 81.625 427.411 81.9805C428.149 82.3223 428.99 82.4932 429.933 82.4932C431.123 82.4932 432.182 82.2539 433.112 81.7754C434.042 81.2969 434.848 80.6201 435.532 79.7451L438.137 82.2676C437.658 82.9648 437.036 83.6348 436.27 84.2773C435.505 84.9062 434.568 85.4189 433.461 85.8154C432.367 86.2119 431.096 86.4102 429.646 86.4102ZM448.383 56.1406L447.891 77.2021H443.666L443.153 56.1406H448.383ZM443.01 83.6621C443.01 82.9102 443.256 82.2812 443.748 81.7754C444.254 81.2559 444.951 80.9961 445.84 80.9961C446.715 80.9961 447.405 81.2559 447.911 81.7754C448.417 82.2812 448.67 82.9102 448.67 83.6621C448.67 84.3867 448.417 85.0088 447.911 85.5283C447.405 86.0342 446.715 86.2871 445.84 86.2871C444.951 86.2871 444.254 86.0342 443.748 85.5283C443.256 85.0088 443.01 84.3867 443.01 83.6621Z" fill="#66002B"/>
</g>
<mask id="mask0_33_29" style="mask-type:alpha" maskUnits="userSpaceOnUse" x="48" y="42" width="60" height="60">
<rect x="48" y="42" width="60" height="60" fill="#D9D9D9"/>
</mask>
<g mask="url(#mask0_33_29)">
<path d="M75.5 87C70.625 87 66.4896 85.3021 63.0938 81.9063C59.6979 78.5104 58 74.375 58 69.5V54.5C58 53.125 58.4896 51.9479 59.4688 50.9688C60.4479 49.9896 61.625 49.5 63 49.5H94.25C96.6667 49.5 98.7292 50.3542 100.438 52.0625C102.146 53.7708 103 55.8333 103 58.25C103 60.6667 102.146 62.7292 100.438 64.4375C98.7292 66.1458 96.6667 67 94.25 67H93V69.5C93 74.375 91.3021 78.5104 87.9063 81.9063C84.5104 85.3021 80.375 87 75.5 87ZM63 62H88V54.5H63V62ZM75.5 82C78.9583 82 81.9063 80.7813 84.3438 78.3438C86.7813 75.9063 88 72.9583 88 69.5V67H63V69.5C63 72.9583 64.2188 75.9063 66.6563 78.3438C69.0938 80.7813 72.0417 82 75.5 82ZM93 62H94.25C95.2917 62 96.1771 61.6354 96.9062 60.9062C97.6354 60.1771 98 59.2917 98 58.25C98 57.2083 97.6354 56.3229 96.9062 55.5938C96.1771 54.8646 95.2917 54.5 94.25 54.5H93V62ZM58 94.5V89.5H98V94.5H58Z" fill="#66002B"/>
</g>
<defs>
<clipPath id="clip0_33_29">
<rect y="12" width="500" height="120" rx="60" fill="white"/>
</clipPath>
</defs>
</svg>
