<svg width="545" height="144" viewBox="0 0 545 144" fill="none" xmlns="http://www.w3.org/2000/svg">
<g clip-path="url(#clip0_21_274)">
<rect y="12" width="545" height="120" rx="60" fill="#FFB7C5"/>
<path d="M78 82L65.5 69.5L69 65.875L75.5 72.375V52H80.5V72.375L87 65.875L90.5 69.5L78 82ZM63 92C61.625 92 60.4479 91.5104 59.4688 90.5313C58.4896 89.5521 58 88.375 58 87V79.5H63V87H93V79.5H98V87C98 88.375 97.5104 89.5521 96.5313 90.5313C95.5521 91.5104 94.375 92 93 92H63Z" fill="#FFB7C5"/>
<path d="M143.71 86H137.332L137.373 81.9189H143.71C145.556 81.9189 147.101 81.5156 148.345 80.709C149.603 79.9023 150.546 78.7471 151.175 77.2432C151.817 75.7393 152.139 73.9482 152.139 71.8701V70.25C152.139 68.6367 151.954 67.208 151.585 65.9639C151.229 64.7197 150.696 63.6738 149.985 62.8262C149.288 61.9785 148.427 61.3359 147.401 60.8984C146.39 60.4609 145.221 60.2422 143.895 60.2422H137.209V56.1406H143.895C145.877 56.1406 147.688 56.4756 149.329 57.1455C150.97 57.8018 152.385 58.752 153.574 59.9961C154.777 61.2402 155.7 62.7305 156.343 64.4668C156.985 66.2031 157.307 68.1445 157.307 70.291V71.8701C157.307 74.0166 156.985 75.958 156.343 77.6943C155.7 79.4307 154.777 80.9209 153.574 82.165C152.371 83.3955 150.936 84.3457 149.268 85.0156C147.613 85.6719 145.761 86 143.71 86ZM140.183 56.1406V86H135.035V56.1406H140.183ZM161.339 75.1514V74.6797C161.339 73.0801 161.571 71.5967 162.036 70.2295C162.501 68.8486 163.171 67.6523 164.046 66.6406C164.935 65.6152 166.015 64.8223 167.286 64.2617C168.571 63.6875 170.021 63.4004 171.634 63.4004C173.261 63.4004 174.71 63.6875 175.982 64.2617C177.267 64.8223 178.354 65.6152 179.242 66.6406C180.131 67.6523 180.808 68.8486 181.273 70.2295C181.737 71.5967 181.97 73.0801 181.97 74.6797V75.1514C181.97 76.751 181.737 78.2344 181.273 79.6016C180.808 80.9688 180.131 82.165 179.242 83.1904C178.354 84.2021 177.274 84.9951 176.002 85.5693C174.731 86.1299 173.288 86.4102 171.675 86.4102C170.048 86.4102 168.592 86.1299 167.307 85.5693C166.035 84.9951 164.955 84.2021 164.067 83.1904C163.178 82.165 162.501 80.9688 162.036 79.6016C161.571 78.2344 161.339 76.751 161.339 75.1514ZM166.281 74.6797V75.1514C166.281 76.1494 166.384 77.0928 166.589 77.9814C166.794 78.8701 167.115 79.6494 167.553 80.3193C167.99 80.9893 168.551 81.5156 169.235 81.8984C169.918 82.2812 170.732 82.4727 171.675 82.4727C172.591 82.4727 173.384 82.2812 174.054 81.8984C174.737 81.5156 175.298 80.9893 175.736 80.3193C176.173 79.6494 176.494 78.8701 176.699 77.9814C176.918 77.0928 177.028 76.1494 177.028 75.1514V74.6797C177.028 73.6953 176.918 72.7656 176.699 71.8906C176.494 71.002 176.166 70.2158 175.715 69.5322C175.278 68.8486 174.717 68.3154 174.033 67.9326C173.363 67.5361 172.564 67.3379 171.634 67.3379C170.704 67.3379 169.898 67.5361 169.214 67.9326C168.544 68.3154 167.99 68.8486 167.553 69.5322C167.115 70.2158 166.794 71.002 166.589 71.8906C166.384 72.7656 166.281 73.6953 166.281 74.6797ZM192.442 81.0781L197.569 63.8105H200.727L199.866 68.9785L194.698 86H191.868L192.442 81.0781ZM189.427 63.8105L193.426 81.1602L193.754 86H190.596L184.587 63.8105H189.427ZM205.526 80.9551L209.402 63.8105H214.221L208.233 86H205.075L205.526 80.9551ZM201.26 63.8105L206.326 80.873L206.961 86H204.131L198.902 68.958L198.04 63.8105H201.26ZM222.786 68.5479V86H217.843V63.8105H222.499L222.786 68.5479ZM221.904 74.085L220.304 74.0645C220.318 72.4922 220.537 71.0498 220.961 69.7373C221.398 68.4248 222 67.2969 222.765 66.3535C223.545 65.4102 224.474 64.6855 225.554 64.1797C226.634 63.6602 227.838 63.4004 229.164 63.4004C230.23 63.4004 231.194 63.5508 232.055 63.8516C232.93 64.1387 233.675 64.6104 234.291 65.2666C234.92 65.9229 235.398 66.7773 235.726 67.8301C236.054 68.8691 236.218 70.1475 236.218 71.665V86H231.255V71.6445C231.255 70.5781 231.098 69.7373 230.784 69.1221C230.483 68.4932 230.039 68.0488 229.451 67.7891C228.877 67.5156 228.159 67.3789 227.297 67.3789C226.45 67.3789 225.691 67.5566 225.021 67.9121C224.351 68.2676 223.784 68.7529 223.319 69.3682C222.868 69.9834 222.519 70.6943 222.273 71.501C222.027 72.3076 221.904 73.1689 221.904 74.085ZM246.854 54.5V86H241.891V54.5H246.854ZM251.625 75.1514V74.6797C251.625 73.0801 251.857 71.5967 252.322 70.2295C252.787 68.8486 253.457 67.6523 254.332 66.6406C255.221 65.6152 256.301 64.8223 257.572 64.2617C258.857 63.6875 260.307 63.4004 261.92 63.4004C263.547 63.4004 264.996 63.6875 266.268 64.2617C267.553 64.8223 268.64 65.6152 269.528 66.6406C270.417 67.6523 271.094 68.8486 271.559 70.2295C272.023 71.5967 272.256 73.0801 272.256 74.6797V75.1514C272.256 76.751 272.023 78.2344 271.559 79.6016C271.094 80.9688 270.417 82.165 269.528 83.1904C268.64 84.2021 267.56 84.9951 266.288 85.5693C265.017 86.1299 263.574 86.4102 261.961 86.4102C260.334 86.4102 258.878 86.1299 257.593 85.5693C256.321 84.9951 255.241 84.2021 254.353 83.1904C253.464 82.165 252.787 80.9688 252.322 79.6016C251.857 78.2344 251.625 76.751 251.625 75.1514ZM256.567 74.6797V75.1514C256.567 76.1494 256.67 77.0928 256.875 77.9814C257.08 78.8701 257.401 79.6494 257.839 80.3193C258.276 80.9893 258.837 81.5156 259.521 81.8984C260.204 82.2812 261.018 82.4727 261.961 82.4727C262.877 82.4727 263.67 82.2812 264.34 81.8984C265.023 81.5156 265.584 80.9893 266.021 80.3193C266.459 79.6494 266.78 78.8701 266.985 77.9814C267.204 77.0928 267.313 76.1494 267.313 75.1514V74.6797C267.313 73.6953 267.204 72.7656 266.985 71.8906C266.78 71.002 266.452 70.2158 266.001 69.5322C265.563 68.8486 265.003 68.3154 264.319 67.9326C263.649 67.5361 262.85 67.3379 261.92 67.3379C260.99 67.3379 260.184 67.5361 259.5 67.9326C258.83 68.3154 258.276 68.8486 257.839 69.5322C257.401 70.2158 257.08 71.002 256.875 71.8906C256.67 72.7656 256.567 73.6953 256.567 74.6797ZM289.208 81.5498V70.9678C289.208 70.1748 289.065 69.4912 288.778 68.917C288.49 68.3428 288.053 67.8984 287.465 67.584C286.891 67.2695 286.166 67.1123 285.291 67.1123C284.485 67.1123 283.787 67.249 283.199 67.5225C282.612 67.7959 282.154 68.165 281.825 68.6299C281.497 69.0947 281.333 69.6211 281.333 70.209H276.411C276.411 69.334 276.623 68.4863 277.047 67.666C277.471 66.8457 278.086 66.1143 278.893 65.4717C279.699 64.8291 280.663 64.3232 281.784 63.9541C282.905 63.585 284.163 63.4004 285.558 63.4004C287.226 63.4004 288.702 63.6807 289.988 64.2412C291.286 64.8018 292.305 65.6494 293.043 66.7842C293.795 67.9053 294.171 69.3135 294.171 71.0088V80.873C294.171 81.8848 294.239 82.7939 294.376 83.6006C294.527 84.3936 294.738 85.084 295.012 85.6719V86H289.946C289.714 85.4668 289.529 84.79 289.393 83.9697C289.27 83.1357 289.208 82.3291 289.208 81.5498ZM289.926 72.5059L289.967 75.5615H286.419C285.503 75.5615 284.696 75.6504 283.999 75.8281C283.302 75.9922 282.721 76.2383 282.256 76.5664C281.791 76.8945 281.443 77.291 281.21 77.7559C280.978 78.2207 280.862 78.7471 280.862 79.335C280.862 79.9229 280.998 80.4629 281.272 80.9551C281.545 81.4336 281.942 81.8096 282.461 82.083C282.994 82.3564 283.637 82.4932 284.389 82.4932C285.401 82.4932 286.282 82.2881 287.034 81.8779C287.8 81.4541 288.402 80.9414 288.839 80.3398C289.277 79.7246 289.509 79.1436 289.536 78.5967L291.136 80.791C290.972 81.3516 290.692 81.9531 290.295 82.5957C289.899 83.2383 289.379 83.8535 288.737 84.4414C288.108 85.0156 287.349 85.4873 286.46 85.8564C285.585 86.2256 284.573 86.4102 283.425 86.4102C281.976 86.4102 280.684 86.123 279.549 85.5488C278.414 84.9609 277.526 84.1748 276.883 83.1904C276.24 82.1924 275.919 81.0645 275.919 79.8066C275.919 78.6309 276.138 77.5918 276.575 76.6895C277.027 75.7734 277.683 75.0078 278.544 74.3926C279.419 73.7773 280.486 73.3125 281.743 72.998C283.001 72.6699 284.437 72.5059 286.05 72.5059H289.926ZM313.174 81.4062V54.5H318.137V86H313.646L313.174 81.4062ZM298.737 75.1514V74.7207C298.737 73.0391 298.935 71.5078 299.331 70.127C299.728 68.7324 300.302 67.5361 301.054 66.5381C301.806 65.5264 302.722 64.7539 303.802 64.2207C304.882 63.6738 306.099 63.4004 307.453 63.4004C308.792 63.4004 309.968 63.6602 310.98 64.1797C311.992 64.6992 312.853 65.4443 313.564 66.415C314.275 67.3721 314.842 68.5205 315.266 69.8604C315.69 71.1865 315.991 72.6631 316.168 74.29V75.6641C315.991 77.25 315.69 78.6992 315.266 80.0117C314.842 81.3242 314.275 82.459 313.564 83.416C312.853 84.373 311.985 85.1113 310.959 85.6309C309.948 86.1504 308.765 86.4102 307.412 86.4102C306.072 86.4102 304.862 86.1299 303.782 85.5693C302.715 85.0088 301.806 84.2227 301.054 83.2109C300.302 82.1992 299.728 81.0098 299.331 79.6426C298.935 78.2617 298.737 76.7646 298.737 75.1514ZM303.679 74.7207V75.1514C303.679 76.1631 303.768 77.1064 303.946 77.9814C304.137 78.8564 304.431 79.6289 304.828 80.2988C305.224 80.9551 305.737 81.4746 306.366 81.8574C307.008 82.2266 307.774 82.4111 308.663 82.4111C309.784 82.4111 310.706 82.165 311.431 81.6729C312.156 81.1807 312.723 80.5176 313.133 79.6836C313.557 78.8359 313.844 77.8926 313.995 76.8535V73.1416C313.913 72.335 313.742 71.583 313.482 70.8857C313.236 70.1885 312.901 69.5801 312.477 69.0605C312.053 68.5273 311.527 68.1172 310.898 67.8301C310.283 67.5293 309.551 67.3789 308.704 67.3789C307.801 67.3789 307.036 67.5703 306.407 67.9531C305.778 68.3359 305.258 68.8623 304.848 69.5322C304.452 70.2021 304.158 70.9814 303.966 71.8701C303.775 72.7588 303.679 73.709 303.679 74.7207ZM334.467 74.208V73.8594C334.467 70.9336 334.781 68.2812 335.41 65.9023C336.053 63.5098 336.887 61.418 337.912 59.627C338.937 57.8223 340.031 56.332 341.193 55.1562C342.369 53.9668 343.497 53.1123 344.577 52.5928L345.561 55.4229C344.768 56.0107 343.975 56.8242 343.182 57.8633C342.403 58.9023 341.685 60.1807 341.029 61.6982C340.387 63.2021 339.867 64.9658 339.471 66.9893C339.088 68.999 338.896 71.2754 338.896 73.8184V74.249C338.896 76.792 339.088 79.0752 339.471 81.0986C339.867 83.1084 340.387 84.8721 341.029 86.3896C341.685 87.9072 342.403 89.1924 343.182 90.2451C343.975 91.3115 344.768 92.1592 345.561 92.7881L344.577 95.4951C343.497 94.9619 342.369 94.1006 341.193 92.9111C340.031 91.7354 338.937 90.2451 337.912 88.4404C336.887 86.6494 336.053 84.5645 335.41 82.1855C334.781 79.793 334.467 77.1338 334.467 74.208ZM373.403 56.1406V86H368.256L354.864 64.6104V86H349.717V56.1406H354.864L368.297 77.5713V56.1406H373.403ZM384.634 63.8105V86H379.671V63.8105H384.634ZM379.343 57.9863C379.343 57.2344 379.589 56.6123 380.081 56.1201C380.587 55.6143 381.284 55.3613 382.173 55.3613C383.048 55.3613 383.738 55.6143 384.244 56.1201C384.75 56.6123 385.003 57.2344 385.003 57.9863C385.003 58.7246 384.75 59.3398 384.244 59.832C383.738 60.3242 383.048 60.5703 382.173 60.5703C381.284 60.5703 380.587 60.3242 380.081 59.832C379.589 59.3398 379.343 58.7246 379.343 57.9863ZM404.56 63.8105H409.051V85.3848C409.051 87.3809 408.627 89.0762 407.78 90.4707C406.932 91.8652 405.749 92.9248 404.232 93.6494C402.714 94.3877 400.957 94.7568 398.961 94.7568C398.114 94.7568 397.17 94.6338 396.131 94.3877C395.106 94.1416 394.108 93.7451 393.137 93.1982C392.18 92.665 391.38 91.9609 390.738 91.0859L393.055 88.1738C393.848 89.1172 394.723 89.8076 395.68 90.2451C396.637 90.6826 397.642 90.9014 398.695 90.9014C399.829 90.9014 400.793 90.6895 401.586 90.2656C402.393 89.8555 403.015 89.2471 403.453 88.4404C403.89 87.6338 404.109 86.6494 404.109 85.4873V68.835L404.56 63.8105ZM389.487 75.1514V74.7207C389.487 73.0391 389.692 71.5078 390.102 70.127C390.512 68.7324 391.1 67.5361 391.866 66.5381C392.631 65.5264 393.561 64.7539 394.655 64.2207C395.748 63.6738 396.986 63.4004 398.367 63.4004C399.802 63.4004 401.026 63.6602 402.038 64.1797C403.063 64.6992 403.917 65.4443 404.601 66.415C405.285 67.3721 405.818 68.5205 406.201 69.8604C406.597 71.1865 406.891 72.6631 407.082 74.29V75.6641C406.905 77.25 406.604 78.6992 406.18 80.0117C405.756 81.3242 405.196 82.459 404.498 83.416C403.801 84.373 402.94 85.1113 401.914 85.6309C400.903 86.1504 399.706 86.4102 398.326 86.4102C396.972 86.4102 395.748 86.1299 394.655 85.5693C393.575 85.0088 392.645 84.2227 391.866 83.2109C391.1 82.1992 390.512 81.0098 390.102 79.6426C389.692 78.2617 389.487 76.7646 389.487 75.1514ZM394.429 74.7207V75.1514C394.429 76.1631 394.525 77.1064 394.716 77.9814C394.921 78.8564 395.229 79.6289 395.639 80.2988C396.063 80.9551 396.596 81.4746 397.239 81.8574C397.895 82.2266 398.667 82.4111 399.556 82.4111C400.718 82.4111 401.668 82.165 402.407 81.6729C403.159 81.1807 403.733 80.5176 404.129 79.6836C404.539 78.8359 404.827 77.8926 404.991 76.8535V73.1416C404.909 72.335 404.738 71.583 404.478 70.8857C404.232 70.1885 403.897 69.5801 403.473 69.0605C403.049 68.5273 402.516 68.1172 401.873 67.8301C401.231 67.5293 400.472 67.3789 399.597 67.3789C398.708 67.3789 397.936 67.5703 397.28 67.9531C396.623 68.3359 396.083 68.8623 395.66 69.5322C395.249 70.2021 394.942 70.9814 394.737 71.8701C394.532 72.7588 394.429 73.709 394.429 74.7207ZM419.359 54.5V86H414.437V54.5H419.359ZM418.498 74.085L416.898 74.0645C416.912 72.5332 417.124 71.1182 417.534 69.8193C417.958 68.5205 418.546 67.3926 419.297 66.4355C420.063 65.4648 420.979 64.7197 422.046 64.2002C423.112 63.667 424.295 63.4004 425.593 63.4004C426.687 63.4004 427.671 63.5508 428.546 63.8516C429.435 64.1523 430.201 64.6377 430.843 65.3076C431.486 65.9639 431.971 66.8252 432.299 67.8916C432.641 68.9443 432.812 70.2295 432.812 71.7471V86H427.849V71.7061C427.849 70.6396 427.692 69.792 427.378 69.1631C427.077 68.5342 426.632 68.083 426.045 67.8096C425.457 67.5225 424.739 67.3789 423.891 67.3789C423.003 67.3789 422.216 67.5566 421.533 67.9121C420.863 68.2676 420.302 68.7529 419.851 69.3682C419.4 69.9834 419.058 70.6943 418.826 71.501C418.607 72.3076 418.498 73.1689 418.498 74.085ZM448.288 63.8105V67.4199H435.778V63.8105H448.288ZM439.388 58.376H444.33V79.8682C444.33 80.5518 444.426 81.0781 444.617 81.4473C444.822 81.8027 445.102 82.042 445.458 82.165C445.813 82.2881 446.23 82.3496 446.709 82.3496C447.051 82.3496 447.379 82.3291 447.693 82.2881C448.008 82.2471 448.261 82.2061 448.452 82.165L448.472 85.9385C448.062 86.0615 447.584 86.1709 447.037 86.2666C446.504 86.3623 445.888 86.4102 445.191 86.4102C444.056 86.4102 443.052 86.2119 442.177 85.8154C441.302 85.4053 440.618 84.7422 440.126 83.8262C439.634 82.9102 439.388 81.6934 439.388 80.1758V58.376ZM457.693 54.5V86H452.73V54.5H457.693ZM469.847 83.5801L475.876 63.8105H481.167L472.267 89.3838C472.062 89.9307 471.795 90.5254 471.467 91.168C471.139 91.8105 470.708 92.4189 470.175 92.9932C469.655 93.5811 469.006 94.0527 468.227 94.4082C467.447 94.7773 466.504 94.9619 465.397 94.9619C464.959 94.9619 464.535 94.9209 464.125 94.8389C463.729 94.7705 463.353 94.6953 462.997 94.6133L462.977 90.8398C463.113 90.8535 463.278 90.8672 463.469 90.8809C463.674 90.8945 463.838 90.9014 463.961 90.9014C464.781 90.9014 465.465 90.7988 466.012 90.5938C466.559 90.4023 467.003 90.0879 467.345 89.6504C467.7 89.2129 468.001 88.625 468.247 87.8867L469.847 83.5801ZM466.443 63.8105L471.713 80.4219L472.595 85.6309L469.17 86.5127L461.111 63.8105H466.443ZM493.833 73.8594V74.208C493.833 77.0928 493.505 79.7246 492.849 82.1035C492.206 84.4824 491.366 86.5742 490.327 88.3789C489.301 90.1836 488.187 91.6875 486.984 92.8906C485.794 94.0938 484.653 94.9619 483.559 95.4951L482.554 92.7881C483.347 92.1865 484.133 91.3594 484.913 90.3066C485.705 89.2676 486.423 87.9756 487.066 86.4307C487.722 84.8994 488.242 83.1221 488.624 81.0986C489.021 79.0752 489.219 76.792 489.219 74.249V73.8184C489.219 71.2754 489.014 68.9922 488.604 66.9688C488.207 64.9316 487.674 63.1543 487.004 61.6367C486.334 60.1055 485.61 58.8135 484.83 57.7607C484.051 56.708 483.292 55.8877 482.554 55.2998L483.559 52.5928C484.653 53.1123 485.794 53.9736 486.984 55.1768C488.187 56.3799 489.301 57.8906 490.327 59.709C491.366 61.5137 492.206 63.6055 492.849 65.9844C493.505 68.3633 493.833 70.9883 493.833 73.8594Z" fill="#66002B"/>
</g>
<mask id="mask0_21_274" style="mask-type:alpha" maskUnits="userSpaceOnUse" x="48" y="42" width="60" height="60">
<rect x="48" y="42" width="60" height="60" fill="#D9D9D9"/>
</mask>
<g mask="url(#mask0_21_274)">
<path d="M65.125 79.5C66.4167 79.5 67.5729 79.125 68.5938 78.375C69.6146 77.625 70.3334 76.6458 70.75 75.4375L71.6875 72.5625C72.3542 70.5625 72.1875 68.7188 71.1875 67.0313C70.1875 65.3438 68.75 64.5 66.875 64.5H58.0625L59.25 74.3125C59.4584 75.7708 60.1146 77 61.2188 78C62.3229 79 63.625 79.5 65.125 79.5ZM90.875 79.5C92.375 79.5 93.6771 79 94.7813 78C95.8854 77 96.5417 75.7708 96.75 74.3125L97.9375 64.5H89.1875C87.3125 64.5 85.875 65.3542 84.875 67.0625C83.875 68.7708 83.7084 70.625 84.375 72.625L85.25 75.4375C85.6667 76.6458 86.3854 77.625 87.4063 78.375C88.4271 79.125 89.5834 79.5 90.875 79.5ZM65.125 84.5C62.375 84.5 59.9688 83.5938 57.9063 81.7813C55.8438 79.9688 54.6459 77.6875 54.3125 74.9375L53 64.5H50.5V59.5H66.875C68.7084 59.5 70.3854 59.9479 71.9063 60.8438C73.4271 61.7396 74.625 62.9583 75.5 64.5H80.5625C81.4375 62.9583 82.6354 61.7396 84.1563 60.8438C85.6771 59.9479 87.3542 59.5 89.1875 59.5H105.5V64.5H103L101.688 74.9375C101.354 77.6875 100.156 79.9688 98.0938 81.7813C96.0313 83.5938 93.625 84.5 90.875 84.5C88.5 84.5 86.3646 83.8229 84.4688 82.4688C82.5729 81.1146 81.25 79.3125 80.5 77.0625L79.5625 74.25C79.4792 73.9583 79.3959 73.6562 79.3125 73.3437C79.2292 73.0312 79.1459 72.5833 79.0625 72H76.9375C76.8542 72.5 76.7709 72.9063 76.6875 73.2188C76.6042 73.5313 76.5209 73.8333 76.4375 74.125L75.5 77C74.75 79.25 73.4271 81.0625 71.5313 82.4375C69.6354 83.8125 67.5 84.5 65.125 84.5Z" fill="#66002B"/>
</g>
<defs>
<clipPath id="clip0_21_274">
<rect y="12" width="545" height="120" rx="60" fill="white"/>
</clipPath>
</defs>
</svg>
