<svg width="531" height="144" viewBox="0 0 531 144" fill="none" xmlns="http://www.w3.org/2000/svg">
<g clip-path="url(#clip0_2_1711)">
<rect y="12" width="531" height="120" rx="60" fill="#FFB7C5"/>
<path d="M78 82L65.5 69.5L69 65.875L75.5 72.375V52H80.5V72.375L87 65.875L90.5 69.5L78 82ZM63 92C61.625 92 60.4479 91.5104 59.4688 90.5313C58.4896 89.5521 58 88.375 58 87V79.5H63V87H93V79.5H98V87C98 88.375 97.5104 89.5521 96.5313 90.5313C95.5521 91.5104 94.375 92 93 92H63Z" fill="#66002B"/>
<path d="M143.71 86H137.332L137.373 81.9189H143.71C145.556 81.9189 147.101 81.5156 148.345 80.709C149.603 79.9023 150.546 78.7471 151.175 77.2432C151.817 75.7393 152.139 73.9482 152.139 71.8701V70.25C152.139 68.6367 151.954 67.208 151.585 65.9639C151.229 64.7197 150.696 63.6738 149.985 62.8262C149.288 61.9785 148.427 61.3359 147.401 60.8984C146.39 60.4609 145.221 60.2422 143.895 60.2422H137.209V56.1406H143.895C145.877 56.1406 147.688 56.4756 149.329 57.1455C150.97 57.8018 152.385 58.752 153.574 59.9961C154.777 61.2402 155.7 62.7305 156.343 64.4668C156.985 66.2031 157.307 68.1445 157.307 70.291V71.8701C157.307 74.0166 156.985 75.958 156.343 77.6943C155.7 79.4307 154.777 80.9209 153.574 82.165C152.371 83.3955 150.936 84.3457 149.268 85.0156C147.613 85.6719 145.761 86 143.71 86ZM140.183 56.1406V86H135.035V56.1406H140.183ZM161.339 75.1514V74.6797C161.339 73.0801 161.571 71.5967 162.036 70.2295C162.501 68.8486 163.171 67.6523 164.046 66.6406C164.935 65.6152 166.015 64.8223 167.286 64.2617C168.571 63.6875 170.021 63.4004 171.634 63.4004C173.261 63.4004 174.71 63.6875 175.982 64.2617C177.267 64.8223 178.354 65.6152 179.242 66.6406C180.131 67.6523 180.808 68.8486 181.273 70.2295C181.737 71.5967 181.97 73.0801 181.97 74.6797V75.1514C181.97 76.751 181.737 78.2344 181.273 79.6016C180.808 80.9688 180.131 82.165 179.242 83.1904C178.354 84.2021 177.274 84.9951 176.002 85.5693C174.731 86.1299 173.288 86.4102 171.675 86.4102C170.048 86.4102 168.592 86.1299 167.307 85.5693C166.035 84.9951 164.955 84.2021 164.067 83.1904C163.178 82.165 162.501 80.9688 162.036 79.6016C161.571 78.2344 161.339 76.751 161.339 75.1514ZM166.281 74.6797V75.1514C166.281 76.1494 166.384 77.0928 166.589 77.9814C166.794 78.8701 167.115 79.6494 167.553 80.3193C167.99 80.9893 168.551 81.5156 169.235 81.8984C169.918 82.2812 170.732 82.4727 171.675 82.4727C172.591 82.4727 173.384 82.2812 174.054 81.8984C174.737 81.5156 175.298 80.9893 175.736 80.3193C176.173 79.6494 176.494 78.8701 176.699 77.9814C176.918 77.0928 177.028 76.1494 177.028 75.1514V74.6797C177.028 73.6953 176.918 72.7656 176.699 71.8906C176.494 71.002 176.166 70.2158 175.715 69.5322C175.278 68.8486 174.717 68.3154 174.033 67.9326C173.363 67.5361 172.564 67.3379 171.634 67.3379C170.704 67.3379 169.898 67.5361 169.214 67.9326C168.544 68.3154 167.99 68.8486 167.553 69.5322C167.115 70.2158 166.794 71.002 166.589 71.8906C166.384 72.7656 166.281 73.6953 166.281 74.6797ZM192.442 81.0781L197.569 63.8105H200.727L199.866 68.9785L194.698 86H191.868L192.442 81.0781ZM189.427 63.8105L193.426 81.1602L193.754 86H190.596L184.587 63.8105H189.427ZM205.526 80.9551L209.402 63.8105H214.221L208.233 86H205.075L205.526 80.9551ZM201.26 63.8105L206.326 80.873L206.961 86H204.131L198.902 68.958L198.04 63.8105H201.26ZM222.786 68.5479V86H217.843V63.8105H222.499L222.786 68.5479ZM221.904 74.085L220.304 74.0645C220.318 72.4922 220.537 71.0498 220.961 69.7373C221.398 68.4248 222 67.2969 222.765 66.3535C223.545 65.4102 224.474 64.6855 225.554 64.1797C226.634 63.6602 227.838 63.4004 229.164 63.4004C230.23 63.4004 231.194 63.5508 232.055 63.8516C232.93 64.1387 233.675 64.6104 234.291 65.2666C234.92 65.9229 235.398 66.7773 235.726 67.8301C236.054 68.8691 236.218 70.1475 236.218 71.665V86H231.255V71.6445C231.255 70.5781 231.098 69.7373 230.784 69.1221C230.483 68.4932 230.039 68.0488 229.451 67.7891C228.877 67.5156 228.159 67.3789 227.297 67.3789C226.45 67.3789 225.691 67.5566 225.021 67.9121C224.351 68.2676 223.784 68.7529 223.319 69.3682C222.868 69.9834 222.519 70.6943 222.273 71.501C222.027 72.3076 221.904 73.1689 221.904 74.085ZM246.854 54.5V86H241.891V54.5H246.854ZM251.625 75.1514V74.6797C251.625 73.0801 251.857 71.5967 252.322 70.2295C252.787 68.8486 253.457 67.6523 254.332 66.6406C255.221 65.6152 256.301 64.8223 257.572 64.2617C258.857 63.6875 260.307 63.4004 261.92 63.4004C263.547 63.4004 264.996 63.6875 266.268 64.2617C267.553 64.8223 268.64 65.6152 269.528 66.6406C270.417 67.6523 271.094 68.8486 271.559 70.2295C272.023 71.5967 272.256 73.0801 272.256 74.6797V75.1514C272.256 76.751 272.023 78.2344 271.559 79.6016C271.094 80.9688 270.417 82.165 269.528 83.1904C268.64 84.2021 267.56 84.9951 266.288 85.5693C265.017 86.1299 263.574 86.4102 261.961 86.4102C260.334 86.4102 258.878 86.1299 257.593 85.5693C256.321 84.9951 255.241 84.2021 254.353 83.1904C253.464 82.165 252.787 80.9688 252.322 79.6016C251.857 78.2344 251.625 76.751 251.625 75.1514ZM256.567 74.6797V75.1514C256.567 76.1494 256.67 77.0928 256.875 77.9814C257.08 78.8701 257.401 79.6494 257.839 80.3193C258.276 80.9893 258.837 81.5156 259.521 81.8984C260.204 82.2812 261.018 82.4727 261.961 82.4727C262.877 82.4727 263.67 82.2812 264.34 81.8984C265.023 81.5156 265.584 80.9893 266.021 80.3193C266.459 79.6494 266.78 78.8701 266.985 77.9814C267.204 77.0928 267.313 76.1494 267.313 75.1514V74.6797C267.313 73.6953 267.204 72.7656 266.985 71.8906C266.78 71.002 266.452 70.2158 266.001 69.5322C265.563 68.8486 265.003 68.3154 264.319 67.9326C263.649 67.5361 262.85 67.3379 261.92 67.3379C260.99 67.3379 260.184 67.5361 259.5 67.9326C258.83 68.3154 258.276 68.8486 257.839 69.5322C257.401 70.2158 257.08 71.002 256.875 71.8906C256.67 72.7656 256.567 73.6953 256.567 74.6797ZM289.208 81.5498V70.9678C289.208 70.1748 289.065 69.4912 288.778 68.917C288.49 68.3428 288.053 67.8984 287.465 67.584C286.891 67.2695 286.166 67.1123 285.291 67.1123C284.485 67.1123 283.787 67.249 283.199 67.5225C282.612 67.7959 282.154 68.165 281.825 68.6299C281.497 69.0947 281.333 69.6211 281.333 70.209H276.411C276.411 69.334 276.623 68.4863 277.047 67.666C277.471 66.8457 278.086 66.1143 278.893 65.4717C279.699 64.8291 280.663 64.3232 281.784 63.9541C282.905 63.585 284.163 63.4004 285.558 63.4004C287.226 63.4004 288.702 63.6807 289.988 64.2412C291.286 64.8018 292.305 65.6494 293.043 66.7842C293.795 67.9053 294.171 69.3135 294.171 71.0088V80.873C294.171 81.8848 294.239 82.7939 294.376 83.6006C294.527 84.3936 294.738 85.084 295.012 85.6719V86H289.946C289.714 85.4668 289.529 84.79 289.393 83.9697C289.27 83.1357 289.208 82.3291 289.208 81.5498ZM289.926 72.5059L289.967 75.5615H286.419C285.503 75.5615 284.696 75.6504 283.999 75.8281C283.302 75.9922 282.721 76.2383 282.256 76.5664C281.791 76.8945 281.443 77.291 281.21 77.7559C280.978 78.2207 280.862 78.7471 280.862 79.335C280.862 79.9229 280.998 80.4629 281.272 80.9551C281.545 81.4336 281.942 81.8096 282.461 82.083C282.994 82.3564 283.637 82.4932 284.389 82.4932C285.401 82.4932 286.282 82.2881 287.034 81.8779C287.8 81.4541 288.402 80.9414 288.839 80.3398C289.277 79.7246 289.509 79.1436 289.536 78.5967L291.136 80.791C290.972 81.3516 290.692 81.9531 290.295 82.5957C289.899 83.2383 289.379 83.8535 288.737 84.4414C288.108 85.0156 287.349 85.4873 286.46 85.8564C285.585 86.2256 284.573 86.4102 283.425 86.4102C281.976 86.4102 280.684 86.123 279.549 85.5488C278.414 84.9609 277.526 84.1748 276.883 83.1904C276.24 82.1924 275.919 81.0645 275.919 79.8066C275.919 78.6309 276.138 77.5918 276.575 76.6895C277.027 75.7734 277.683 75.0078 278.544 74.3926C279.419 73.7773 280.486 73.3125 281.743 72.998C283.001 72.6699 284.437 72.5059 286.05 72.5059H289.926ZM313.174 81.4062V54.5H318.137V86H313.646L313.174 81.4062ZM298.737 75.1514V74.7207C298.737 73.0391 298.935 71.5078 299.331 70.127C299.728 68.7324 300.302 67.5361 301.054 66.5381C301.806 65.5264 302.722 64.7539 303.802 64.2207C304.882 63.6738 306.099 63.4004 307.453 63.4004C308.792 63.4004 309.968 63.6602 310.98 64.1797C311.992 64.6992 312.853 65.4443 313.564 66.415C314.275 67.3721 314.842 68.5205 315.266 69.8604C315.69 71.1865 315.991 72.6631 316.168 74.29V75.6641C315.991 77.25 315.69 78.6992 315.266 80.0117C314.842 81.3242 314.275 82.459 313.564 83.416C312.853 84.373 311.985 85.1113 310.959 85.6309C309.948 86.1504 308.765 86.4102 307.412 86.4102C306.072 86.4102 304.862 86.1299 303.782 85.5693C302.715 85.0088 301.806 84.2227 301.054 83.2109C300.302 82.1992 299.728 81.0098 299.331 79.6426C298.935 78.2617 298.737 76.7646 298.737 75.1514ZM303.679 74.7207V75.1514C303.679 76.1631 303.768 77.1064 303.946 77.9814C304.137 78.8564 304.431 79.6289 304.828 80.2988C305.224 80.9551 305.737 81.4746 306.366 81.8574C307.008 82.2266 307.774 82.4111 308.663 82.4111C309.784 82.4111 310.706 82.165 311.431 81.6729C312.156 81.1807 312.723 80.5176 313.133 79.6836C313.557 78.8359 313.844 77.8926 313.995 76.8535V73.1416C313.913 72.335 313.742 71.583 313.482 70.8857C313.236 70.1885 312.901 69.5801 312.477 69.0605C312.053 68.5273 311.527 68.1172 310.898 67.8301C310.283 67.5293 309.551 67.3789 308.704 67.3789C307.801 67.3789 307.036 67.5703 306.407 67.9531C305.778 68.3359 305.258 68.8623 304.848 69.5322C304.452 70.2021 304.158 70.9814 303.966 71.8701C303.775 72.7588 303.679 73.709 303.679 74.7207ZM334.467 74.208V73.8594C334.467 70.9336 334.781 68.2812 335.41 65.9023C336.053 63.5098 336.887 61.418 337.912 59.627C338.937 57.8223 340.031 56.332 341.193 55.1562C342.369 53.9668 343.497 53.1123 344.577 52.5928L345.561 55.4229C344.768 56.0107 343.975 56.8242 343.182 57.8633C342.403 58.9023 341.685 60.1807 341.029 61.6982C340.387 63.2021 339.867 64.9658 339.471 66.9893C339.088 68.999 338.896 71.2754 338.896 73.8184V74.249C338.896 76.792 339.088 79.0752 339.471 81.0986C339.867 83.1084 340.387 84.8721 341.029 86.3896C341.685 87.9072 342.403 89.1924 343.182 90.2451C343.975 91.3115 344.768 92.1592 345.561 92.7881L344.577 95.4951C343.497 94.9619 342.369 94.1006 341.193 92.9111C340.031 91.7354 338.937 90.2451 337.912 88.4404C336.887 86.6494 336.053 84.5645 335.41 82.1855C334.781 79.793 334.467 77.1338 334.467 74.208ZM365.426 78.3096C365.426 77.6943 365.33 77.1475 365.139 76.6689C364.961 76.1904 364.64 75.7529 364.175 75.3564C363.71 74.96 363.054 74.5771 362.206 74.208C361.372 73.8252 360.306 73.4355 359.007 73.0391C357.585 72.6016 356.272 72.1162 355.069 71.583C353.88 71.0361 352.841 70.4072 351.952 69.6963C351.063 68.9717 350.373 68.1445 349.881 67.2148C349.389 66.2715 349.143 65.1846 349.143 63.9541C349.143 62.7373 349.396 61.6299 349.901 60.6318C350.421 59.6338 351.152 58.7725 352.096 58.0479C353.053 57.3096 354.181 56.7422 355.479 56.3457C356.778 55.9355 358.214 55.7305 359.786 55.7305C362.001 55.7305 363.908 56.1406 365.508 56.9609C367.121 57.7812 368.358 58.8818 369.22 60.2627C370.095 61.6436 370.532 63.168 370.532 64.8359H365.426C365.426 63.8516 365.214 62.9834 364.79 62.2314C364.38 61.4658 363.751 60.8643 362.903 60.4268C362.069 59.9893 361.01 59.7705 359.725 59.7705C358.508 59.7705 357.496 59.9551 356.689 60.3242C355.883 60.6934 355.281 61.1924 354.885 61.8213C354.488 62.4502 354.29 63.1611 354.29 63.9541C354.29 64.5146 354.42 65.0273 354.68 65.4922C354.939 65.9434 355.336 66.3672 355.869 66.7637C356.402 67.1465 357.072 67.5088 357.879 67.8506C358.686 68.1924 359.636 68.5205 360.729 68.835C362.384 69.3271 363.826 69.874 365.057 70.4756C366.287 71.0635 367.312 71.7334 368.133 72.4854C368.953 73.2373 369.568 74.0918 369.979 75.0488C370.389 75.9922 370.594 77.0654 370.594 78.2686C370.594 79.5264 370.341 80.6611 369.835 81.6729C369.329 82.6709 368.604 83.5254 367.661 84.2363C366.731 84.9336 365.61 85.4736 364.298 85.8564C362.999 86.2256 361.55 86.4102 359.95 86.4102C358.515 86.4102 357.1 86.2188 355.705 85.8359C354.324 85.4531 353.066 84.8721 351.932 84.0928C350.797 83.2998 349.895 82.3154 349.225 81.1396C348.555 79.9502 348.22 78.5625 348.22 76.9766H353.367C353.367 77.9473 353.531 78.7744 353.859 79.458C354.201 80.1416 354.673 80.7021 355.274 81.1396C355.876 81.5635 356.573 81.8779 357.366 82.083C358.173 82.2881 359.034 82.3906 359.95 82.3906C361.153 82.3906 362.158 82.2197 362.965 81.8779C363.785 81.5361 364.4 81.0576 364.811 80.4424C365.221 79.8271 365.426 79.1162 365.426 78.3096ZM385.126 63.8105V67.4199H372.616V63.8105H385.126ZM376.226 58.376H381.168V79.8682C381.168 80.5518 381.264 81.0781 381.455 81.4473C381.66 81.8027 381.941 82.042 382.296 82.165C382.652 82.2881 383.069 82.3496 383.547 82.3496C383.889 82.3496 384.217 82.3291 384.531 82.2881C384.846 82.2471 385.099 82.2061 385.29 82.165L385.311 85.9385C384.901 86.0615 384.422 86.1709 383.875 86.2666C383.342 86.3623 382.727 86.4102 382.029 86.4102C380.895 86.4102 379.89 86.2119 379.015 85.8154C378.14 85.4053 377.456 84.7422 376.964 83.8262C376.472 82.9102 376.226 81.6934 376.226 80.1758V58.376ZM401.75 81.5498V70.9678C401.75 70.1748 401.607 69.4912 401.32 68.917C401.033 68.3428 400.595 67.8984 400.007 67.584C399.433 67.2695 398.708 67.1123 397.833 67.1123C397.027 67.1123 396.329 67.249 395.742 67.5225C395.154 67.7959 394.696 68.165 394.368 68.6299C394.039 69.0947 393.875 69.6211 393.875 70.209H388.954C388.954 69.334 389.165 68.4863 389.589 67.666C390.013 66.8457 390.628 66.1143 391.435 65.4717C392.242 64.8291 393.205 64.3232 394.327 63.9541C395.448 63.585 396.705 63.4004 398.1 63.4004C399.768 63.4004 401.245 63.6807 402.53 64.2412C403.829 64.8018 404.847 65.6494 405.585 66.7842C406.337 67.9053 406.713 69.3135 406.713 71.0088V80.873C406.713 81.8848 406.782 82.7939 406.918 83.6006C407.069 84.3936 407.281 85.084 407.554 85.6719V86H402.489C402.256 85.4668 402.072 84.79 401.935 83.9697C401.812 83.1357 401.75 82.3291 401.75 81.5498ZM402.468 72.5059L402.509 75.5615H398.961C398.045 75.5615 397.239 75.6504 396.541 75.8281C395.844 75.9922 395.263 76.2383 394.798 76.5664C394.333 76.8945 393.985 77.291 393.752 77.7559C393.52 78.2207 393.404 78.7471 393.404 79.335C393.404 79.9229 393.54 80.4629 393.814 80.9551C394.087 81.4336 394.484 81.8096 395.003 82.083C395.537 82.3564 396.179 82.4932 396.931 82.4932C397.943 82.4932 398.825 82.2881 399.577 81.8779C400.342 81.4541 400.944 80.9414 401.381 80.3398C401.819 79.7246 402.051 79.1436 402.079 78.5967L403.678 80.791C403.514 81.3516 403.234 81.9531 402.837 82.5957C402.441 83.2383 401.921 83.8535 401.279 84.4414C400.65 85.0156 399.891 85.4873 399.002 85.8564C398.127 86.2256 397.116 86.4102 395.967 86.4102C394.518 86.4102 393.226 86.123 392.091 85.5488C390.956 84.9609 390.068 84.1748 389.425 83.1904C388.783 82.1924 388.461 81.0645 388.461 79.8066C388.461 78.6309 388.68 77.5918 389.118 76.6895C389.569 75.7734 390.225 75.0078 391.086 74.3926C391.961 73.7773 393.028 73.3125 394.286 72.998C395.543 72.6699 396.979 72.5059 398.592 72.5059H402.468ZM412.202 54.5H417.144V81.2627L416.672 86H412.202V54.5ZM431.623 74.7002V75.1309C431.623 76.7715 431.438 78.2822 431.069 79.6631C430.713 81.0303 430.167 82.2197 429.428 83.2314C428.704 84.2432 427.801 85.0293 426.721 85.5898C425.655 86.1367 424.418 86.4102 423.009 86.4102C421.629 86.4102 420.425 86.1504 419.4 85.6309C418.375 85.1113 417.513 84.373 416.816 83.416C416.132 82.459 415.579 81.3174 415.155 79.9912C414.731 78.665 414.43 77.2021 414.253 75.6025V74.2285C414.43 72.6152 414.731 71.1523 415.155 69.8398C415.579 68.5137 416.132 67.3721 416.816 66.415C417.513 65.4443 418.368 64.6992 419.379 64.1797C420.405 63.6602 421.601 63.4004 422.968 63.4004C424.39 63.4004 425.641 63.6738 426.721 64.2207C427.815 64.7676 428.724 65.5469 429.449 66.5586C430.173 67.5566 430.713 68.7461 431.069 70.127C431.438 71.5078 431.623 73.0322 431.623 74.7002ZM426.68 75.1309V74.7002C426.68 73.7021 426.598 72.7656 426.434 71.8906C426.27 71.002 425.997 70.2227 425.614 69.5527C425.245 68.8828 424.739 68.3564 424.096 67.9736C423.467 67.5771 422.681 67.3789 421.738 67.3789C420.863 67.3789 420.111 67.5293 419.482 67.8301C418.853 68.1309 418.327 68.541 417.903 69.0605C417.479 69.5801 417.144 70.1816 416.898 70.8652C416.666 71.5488 416.508 72.2871 416.426 73.0801V76.792C416.549 77.8174 416.809 78.7607 417.206 79.6221C417.616 80.4697 418.19 81.1533 418.928 81.6729C419.667 82.1787 420.617 82.4316 421.779 82.4316C422.695 82.4316 423.467 82.2471 424.096 81.8779C424.725 81.5088 425.224 80.9961 425.593 80.3398C425.976 79.6699 426.25 78.8906 426.414 78.002C426.591 77.1133 426.68 76.1562 426.68 75.1309ZM441.397 54.5V86H436.434V54.5H441.397ZM456.894 86.4102C455.253 86.4102 453.77 86.1436 452.443 85.6104C451.131 85.0635 450.01 84.3047 449.08 83.334C448.164 82.3633 447.46 81.2217 446.968 79.9092C446.476 78.5967 446.229 77.1816 446.229 75.6641V74.8438C446.229 73.1074 446.482 71.5352 446.988 70.127C447.494 68.7188 448.198 67.5156 449.101 66.5176C450.003 65.5059 451.069 64.7334 452.3 64.2002C453.53 63.667 454.863 63.4004 456.299 63.4004C457.885 63.4004 459.272 63.667 460.462 64.2002C461.651 64.7334 462.636 65.4854 463.415 66.4561C464.208 67.4131 464.796 68.5547 465.179 69.8809C465.575 71.207 465.773 72.6699 465.773 74.2695V76.3818H448.629V72.834H460.893V72.4443C460.865 71.5557 460.688 70.7217 460.359 69.9424C460.045 69.1631 459.56 68.5342 458.903 68.0557C458.247 67.5771 457.372 67.3379 456.278 67.3379C455.458 67.3379 454.727 67.5156 454.084 67.8711C453.455 68.2129 452.929 68.7119 452.505 69.3682C452.081 70.0244 451.753 70.8174 451.521 71.7471C451.302 72.6631 451.192 73.6953 451.192 74.8438V75.6641C451.192 76.6348 451.322 77.5371 451.582 78.3711C451.855 79.1914 452.252 79.9092 452.771 80.5244C453.291 81.1396 453.92 81.625 454.658 81.9805C455.396 82.3223 456.237 82.4932 457.181 82.4932C458.37 82.4932 459.43 82.2539 460.359 81.7754C461.289 81.2969 462.096 80.6201 462.779 79.7451L465.384 82.2676C464.905 82.9648 464.283 83.6348 463.518 84.2773C462.752 84.9062 461.815 85.4189 460.708 85.8154C459.614 86.2119 458.343 86.4102 456.894 86.4102ZM479.465 73.8594V74.208C479.465 77.0928 479.137 79.7246 478.481 82.1035C477.838 84.4824 476.997 86.5742 475.958 88.3789C474.933 90.1836 473.819 91.6875 472.615 92.8906C471.426 94.0938 470.284 94.9619 469.191 95.4951L468.186 92.7881C468.979 92.1865 469.765 91.3594 470.544 90.3066C471.337 89.2676 472.055 87.9756 472.697 86.4307C473.354 84.8994 473.873 83.1221 474.256 81.0986C474.653 79.0752 474.851 76.792 474.851 74.249V73.8184C474.851 71.2754 474.646 68.9922 474.236 66.9688C473.839 64.9316 473.306 63.1543 472.636 61.6367C471.966 60.1055 471.241 58.8135 470.462 57.7607C469.683 56.708 468.924 55.8877 468.186 55.2998L469.191 52.5928C470.284 53.1123 471.426 53.9736 472.615 55.1768C473.819 56.3799 474.933 57.8906 475.958 59.709C476.997 61.5137 477.838 63.6055 478.481 65.9844C479.137 68.3633 479.465 70.9883 479.465 73.8594Z" fill="#66002B"/>
</g>
<defs>
<clipPath id="clip0_2_1711">
<rect y="12" width="531" height="120" rx="60" fill="white"/>
</clipPath>
</defs>
</svg>
