<svg width="369" height="144" viewBox="0 0 369 144" fill="none" xmlns="http://www.w3.org/2000/svg">
<g clip-path="url(#clip0_2_1711)">
<rect y="12" width="369" height="120" rx="60" fill="#FFB7C5"/>
<path d="M78 82L65.5 69.5L69 65.875L75.5 72.375V52H80.5V72.375L87 65.875L90.5 69.5L78 82ZM63 92C61.625 92 60.4479 91.5104 59.4688 90.5313C58.4896 89.5521 58 88.375 58 87V79.5H63V87H93V79.5H98V87C98 88.375 97.5104 89.5521 96.5313 90.5313C95.5521 91.5104 94.375 92 93 92H63Z" fill="#66002B"/>
<path d="M143.71 86H137.332L137.373 81.9189H143.71C145.556 81.9189 147.101 81.5156 148.345 80.709C149.603 79.9023 150.546 78.7471 151.175 77.2432C151.817 75.7393 152.139 73.9482 152.139 71.8701V70.25C152.139 68.6367 151.954 67.208 151.585 65.9639C151.229 64.7197 150.696 63.6738 149.985 62.8262C149.288 61.9785 148.427 61.3359 147.401 60.8984C146.39 60.4609 145.221 60.2422 143.895 60.2422H137.209V56.1406H143.895C145.877 56.1406 147.688 56.4756 149.329 57.1455C150.97 57.8018 152.385 58.752 153.574 59.9961C154.777 61.2402 155.7 62.7305 156.343 64.4668C156.985 66.2031 157.307 68.1445 157.307 70.291V71.8701C157.307 74.0166 156.985 75.958 156.343 77.6943C155.7 79.4307 154.777 80.9209 153.574 82.165C152.371 83.3955 150.936 84.3457 149.268 85.0156C147.613 85.6719 145.761 86 143.71 86ZM140.183 56.1406V86H135.035V56.1406H140.183ZM161.339 75.1514V74.6797C161.339 73.0801 161.571 71.5967 162.036 70.2295C162.501 68.8486 163.171 67.6523 164.046 66.6406C164.935 65.6152 166.015 64.8223 167.286 64.2617C168.571 63.6875 170.021 63.4004 171.634 63.4004C173.261 63.4004 174.71 63.6875 175.982 64.2617C177.267 64.8223 178.354 65.6152 179.242 66.6406C180.131 67.6523 180.808 68.8486 181.273 70.2295C181.737 71.5967 181.97 73.0801 181.97 74.6797V75.1514C181.97 76.751 181.737 78.2344 181.273 79.6016C180.808 80.9688 180.131 82.165 179.242 83.1904C178.354 84.2021 177.274 84.9951 176.002 85.5693C174.731 86.1299 173.288 86.4102 171.675 86.4102C170.048 86.4102 168.592 86.1299 167.307 85.5693C166.035 84.9951 164.955 84.2021 164.067 83.1904C163.178 82.165 162.501 80.9688 162.036 79.6016C161.571 78.2344 161.339 76.751 161.339 75.1514ZM166.281 74.6797V75.1514C166.281 76.1494 166.384 77.0928 166.589 77.9814C166.794 78.8701 167.115 79.6494 167.553 80.3193C167.99 80.9893 168.551 81.5156 169.235 81.8984C169.918 82.2812 170.732 82.4727 171.675 82.4727C172.591 82.4727 173.384 82.2812 174.054 81.8984C174.737 81.5156 175.298 80.9893 175.736 80.3193C176.173 79.6494 176.494 78.8701 176.699 77.9814C176.918 77.0928 177.028 76.1494 177.028 75.1514V74.6797C177.028 73.6953 176.918 72.7656 176.699 71.8906C176.494 71.002 176.166 70.2158 175.715 69.5322C175.278 68.8486 174.717 68.3154 174.033 67.9326C173.363 67.5361 172.564 67.3379 171.634 67.3379C170.704 67.3379 169.898 67.5361 169.214 67.9326C168.544 68.3154 167.99 68.8486 167.553 69.5322C167.115 70.2158 166.794 71.002 166.589 71.8906C166.384 72.7656 166.281 73.6953 166.281 74.6797ZM192.442 81.0781L197.569 63.8105H200.727L199.866 68.9785L194.698 86H191.868L192.442 81.0781ZM189.427 63.8105L193.426 81.1602L193.754 86H190.596L184.587 63.8105H189.427ZM205.526 80.9551L209.402 63.8105H214.221L208.233 86H205.075L205.526 80.9551ZM201.26 63.8105L206.326 80.873L206.961 86H204.131L198.902 68.958L198.04 63.8105H201.26ZM222.786 68.5479V86H217.843V63.8105H222.499L222.786 68.5479ZM221.904 74.085L220.304 74.0645C220.318 72.4922 220.537 71.0498 220.961 69.7373C221.398 68.4248 222 67.2969 222.765 66.3535C223.545 65.4102 224.474 64.6855 225.554 64.1797C226.634 63.6602 227.838 63.4004 229.164 63.4004C230.23 63.4004 231.194 63.5508 232.055 63.8516C232.93 64.1387 233.675 64.6104 234.291 65.2666C234.92 65.9229 235.398 66.7773 235.726 67.8301C236.054 68.8691 236.218 70.1475 236.218 71.665V86H231.255V71.6445C231.255 70.5781 231.098 69.7373 230.784 69.1221C230.483 68.4932 230.039 68.0488 229.451 67.7891C228.877 67.5156 228.159 67.3789 227.297 67.3789C226.45 67.3789 225.691 67.5566 225.021 67.9121C224.351 68.2676 223.784 68.7529 223.319 69.3682C222.868 69.9834 222.519 70.6943 222.273 71.501C222.027 72.3076 221.904 73.1689 221.904 74.085ZM246.854 54.5V86H241.891V54.5H246.854ZM251.625 75.1514V74.6797C251.625 73.0801 251.857 71.5967 252.322 70.2295C252.787 68.8486 253.457 67.6523 254.332 66.6406C255.221 65.6152 256.301 64.8223 257.572 64.2617C258.857 63.6875 260.307 63.4004 261.92 63.4004C263.547 63.4004 264.996 63.6875 266.268 64.2617C267.553 64.8223 268.64 65.6152 269.528 66.6406C270.417 67.6523 271.094 68.8486 271.559 70.2295C272.023 71.5967 272.256 73.0801 272.256 74.6797V75.1514C272.256 76.751 272.023 78.2344 271.559 79.6016C271.094 80.9688 270.417 82.165 269.528 83.1904C268.64 84.2021 267.56 84.9951 266.288 85.5693C265.017 86.1299 263.574 86.4102 261.961 86.4102C260.334 86.4102 258.878 86.1299 257.593 85.5693C256.321 84.9951 255.241 84.2021 254.353 83.1904C253.464 82.165 252.787 80.9688 252.322 79.6016C251.857 78.2344 251.625 76.751 251.625 75.1514ZM256.567 74.6797V75.1514C256.567 76.1494 256.67 77.0928 256.875 77.9814C257.08 78.8701 257.401 79.6494 257.839 80.3193C258.276 80.9893 258.837 81.5156 259.521 81.8984C260.204 82.2812 261.018 82.4727 261.961 82.4727C262.877 82.4727 263.67 82.2812 264.34 81.8984C265.023 81.5156 265.584 80.9893 266.021 80.3193C266.459 79.6494 266.78 78.8701 266.985 77.9814C267.204 77.0928 267.313 76.1494 267.313 75.1514V74.6797C267.313 73.6953 267.204 72.7656 266.985 71.8906C266.78 71.002 266.452 70.2158 266.001 69.5322C265.563 68.8486 265.003 68.3154 264.319 67.9326C263.649 67.5361 262.85 67.3379 261.92 67.3379C260.99 67.3379 260.184 67.5361 259.5 67.9326C258.83 68.3154 258.276 68.8486 257.839 69.5322C257.401 70.2158 257.08 71.002 256.875 71.8906C256.67 72.7656 256.567 73.6953 256.567 74.6797ZM289.208 81.5498V70.9678C289.208 70.1748 289.065 69.4912 288.778 68.917C288.49 68.3428 288.053 67.8984 287.465 67.584C286.891 67.2695 286.166 67.1123 285.291 67.1123C284.485 67.1123 283.787 67.249 283.199 67.5225C282.612 67.7959 282.154 68.165 281.825 68.6299C281.497 69.0947 281.333 69.6211 281.333 70.209H276.411C276.411 69.334 276.623 68.4863 277.047 67.666C277.471 66.8457 278.086 66.1143 278.893 65.4717C279.699 64.8291 280.663 64.3232 281.784 63.9541C282.905 63.585 284.163 63.4004 285.558 63.4004C287.226 63.4004 288.702 63.6807 289.988 64.2412C291.286 64.8018 292.305 65.6494 293.043 66.7842C293.795 67.9053 294.171 69.3135 294.171 71.0088V80.873C294.171 81.8848 294.239 82.7939 294.376 83.6006C294.527 84.3936 294.738 85.084 295.012 85.6719V86H289.946C289.714 85.4668 289.529 84.79 289.393 83.9697C289.27 83.1357 289.208 82.3291 289.208 81.5498ZM289.926 72.5059L289.967 75.5615H286.419C285.503 75.5615 284.696 75.6504 283.999 75.8281C283.302 75.9922 282.721 76.2383 282.256 76.5664C281.791 76.8945 281.443 77.291 281.21 77.7559C280.978 78.2207 280.862 78.7471 280.862 79.335C280.862 79.9229 280.998 80.4629 281.272 80.9551C281.545 81.4336 281.942 81.8096 282.461 82.083C282.994 82.3564 283.637 82.4932 284.389 82.4932C285.401 82.4932 286.282 82.2881 287.034 81.8779C287.8 81.4541 288.402 80.9414 288.839 80.3398C289.277 79.7246 289.509 79.1436 289.536 78.5967L291.136 80.791C290.972 81.3516 290.692 81.9531 290.295 82.5957C289.899 83.2383 289.379 83.8535 288.737 84.4414C288.108 85.0156 287.349 85.4873 286.46 85.8564C285.585 86.2256 284.573 86.4102 283.425 86.4102C281.976 86.4102 280.684 86.123 279.549 85.5488C278.414 84.9609 277.526 84.1748 276.883 83.1904C276.24 82.1924 275.919 81.0645 275.919 79.8066C275.919 78.6309 276.138 77.5918 276.575 76.6895C277.027 75.7734 277.683 75.0078 278.544 74.3926C279.419 73.7773 280.486 73.3125 281.743 72.998C283.001 72.6699 284.437 72.5059 286.05 72.5059H289.926ZM313.174 81.4062V54.5H318.137V86H313.646L313.174 81.4062ZM298.737 75.1514V74.7207C298.737 73.0391 298.935 71.5078 299.331 70.127C299.728 68.7324 300.302 67.5361 301.054 66.5381C301.806 65.5264 302.722 64.7539 303.802 64.2207C304.882 63.6738 306.099 63.4004 307.453 63.4004C308.792 63.4004 309.968 63.6602 310.98 64.1797C311.992 64.6992 312.853 65.4443 313.564 66.415C314.275 67.3721 314.842 68.5205 315.266 69.8604C315.69 71.1865 315.991 72.6631 316.168 74.29V75.6641C315.991 77.25 315.69 78.6992 315.266 80.0117C314.842 81.3242 314.275 82.459 313.564 83.416C312.853 84.373 311.985 85.1113 310.959 85.6309C309.948 86.1504 308.765 86.4102 307.412 86.4102C306.072 86.4102 304.862 86.1299 303.782 85.5693C302.715 85.0088 301.806 84.2227 301.054 83.2109C300.302 82.1992 299.728 81.0098 299.331 79.6426C298.935 78.2617 298.737 76.7646 298.737 75.1514ZM303.679 74.7207V75.1514C303.679 76.1631 303.768 77.1064 303.946 77.9814C304.137 78.8564 304.431 79.6289 304.828 80.2988C305.224 80.9551 305.737 81.4746 306.366 81.8574C307.008 82.2266 307.774 82.4111 308.663 82.4111C309.784 82.4111 310.706 82.165 311.431 81.6729C312.156 81.1807 312.723 80.5176 313.133 79.6836C313.557 78.8359 313.844 77.8926 313.995 76.8535V73.1416C313.913 72.335 313.742 71.583 313.482 70.8857C313.236 70.1885 312.901 69.5801 312.477 69.0605C312.053 68.5273 311.527 68.1172 310.898 67.8301C310.283 67.5293 309.551 67.3789 308.704 67.3789C307.801 67.3789 307.036 67.5703 306.407 67.9531C305.778 68.3359 305.258 68.8623 304.848 69.5322C304.452 70.2021 304.158 70.9814 303.966 71.8701C303.775 72.7588 303.679 73.709 303.679 74.7207Z" fill="#66002B"/>
</g>
<defs>
<clipPath id="clip0_2_1711">
<rect y="12" width="369" height="120" rx="60" fill="white"/>
</clipPath>
</defs>
</svg>
