<svg width="392" height="144" viewBox="0 0 392 144" xmlns="http://www.w3.org/2000/svg">
    <rect y="12" width="392" height="120" rx="60" fill="#FFB7C5"/>
    <path d="M78 89.5C80.75 89.5 83.1042 88.5208 85.0625 86.5625C87.0209 84.6042 88 82.25 88 79.5V69.5C88 66.75 87.0209 64.3958 85.0625 62.4375C83.1042 60.4792 80.75 59.5 78 59.5C75.25 59.5 72.8959 60.4792 70.9375 62.4375C68.9792 64.3958 68 66.75 68 69.5V79.5C68 82.25 68.9792 84.6042 70.9375 86.5625C72.8959 88.5208 75.25 89.5 78 89.5ZM73 82H83V77H73V82ZM73 72H83V67H73V72ZM78 94.5C75.2917 94.5 72.7813 93.8333 70.4688 92.5C68.1563 91.1667 66.3334 89.3333 65 87H58V82H63.25C63.125 81.1667 63.0521 80.3333 63.0313 79.5C63.0104 78.6667 63 77.8333 63 77H58V72H63C63 71.1667 63.0104 70.3333 63.0313 69.5C63.0521 68.6667 63.125 67.8333 63.25 67H58V62H65C65.5834 61.0417 66.2396 60.1458 66.9688 59.3125C67.6979 58.4792 68.5417 57.75 69.5 57.125L65.5 53L69 49.5L74.375 54.875C75.5417 54.5 76.7292 54.3125 77.9375 54.3125C79.1459 54.3125 80.3334 54.5 81.5 54.875L87 49.5L90.5 53L86.375 57.125C87.3334 57.75 88.1979 58.4688 88.9688 59.2813C89.7396 60.0938 90.4167 61 91 62H98V67H92.75C92.875 67.8333 92.9479 68.6667 92.9688 69.5C92.9896 70.3333 93 71.1667 93 72H98V77H93C93 77.8333 92.9896 78.6667 92.9688 79.5C92.9479 80.3333 92.875 81.1667 92.75 82H98V87H91C89.6667 89.3333 87.8438 91.1667 85.5313 92.5C83.2188 93.8333 80.7084 94.5 78 94.5Z" fill="#66002B"/>
    <path d="M158.845 70.25V71.8906C158.845 74.1465 158.551 76.1699 157.963 77.9609C157.375 79.752 156.534 81.2764 155.44 82.5342C154.36 83.792 153.062 84.7559 151.544 85.4258C150.026 86.082 148.345 86.4102 146.499 86.4102C144.667 86.4102 142.992 86.082 141.475 85.4258C139.971 84.7559 138.665 83.792 137.558 82.5342C136.45 81.2764 135.589 79.752 134.974 77.9609C134.372 76.1699 134.071 74.1465 134.071 71.8906V70.25C134.071 67.9941 134.372 65.9775 134.974 64.2002C135.575 62.4092 136.423 60.8848 137.517 59.627C138.624 58.3555 139.93 57.3916 141.434 56.7354C142.951 56.0654 144.626 55.7305 146.458 55.7305C148.304 55.7305 149.985 56.0654 151.503 56.7354C153.021 57.3916 154.326 58.3555 155.42 59.627C156.514 60.8848 157.354 62.4092 157.942 64.2002C158.544 65.9775 158.845 67.9941 158.845 70.25ZM153.697 71.8906V70.209C153.697 68.541 153.533 67.0713 153.205 65.7998C152.891 64.5146 152.419 63.4414 151.79 62.5801C151.175 61.7051 150.416 61.0488 149.514 60.6113C148.611 60.1602 147.593 59.9346 146.458 59.9346C145.323 59.9346 144.312 60.1602 143.423 60.6113C142.534 61.0488 141.775 61.7051 141.146 62.5801C140.531 63.4414 140.06 64.5146 139.731 65.7998C139.403 67.0713 139.239 68.541 139.239 70.209V71.8906C139.239 73.5586 139.403 75.0352 139.731 76.3203C140.06 77.6055 140.538 78.6924 141.167 79.5811C141.81 80.4561 142.575 81.1191 143.464 81.5703C144.353 82.0078 145.364 82.2266 146.499 82.2266C147.647 82.2266 148.666 82.0078 149.555 81.5703C150.443 81.1191 151.195 80.4561 151.811 79.5811C152.426 78.6924 152.891 77.6055 153.205 76.3203C153.533 75.0352 153.697 73.5586 153.697 71.8906ZM168.763 68.0762V94.5312H163.821V63.8105H168.373L168.763 68.0762ZM183.221 74.7002V75.1309C183.221 76.7441 183.029 78.2412 182.647 79.6221C182.278 80.9893 181.724 82.1855 180.986 83.2109C180.261 84.2227 179.365 85.0088 178.299 85.5693C177.233 86.1299 176.002 86.4102 174.608 86.4102C173.227 86.4102 172.017 86.1572 170.978 85.6514C169.952 85.1318 169.084 84.4004 168.373 83.457C167.662 82.5137 167.088 81.4062 166.651 80.1348C166.227 78.8496 165.926 77.4414 165.748 75.9102V74.249C165.926 72.6221 166.227 71.1455 166.651 69.8193C167.088 68.4932 167.662 67.3516 168.373 66.3945C169.084 65.4375 169.952 64.6992 170.978 64.1797C172.003 63.6602 173.199 63.4004 174.567 63.4004C175.961 63.4004 177.198 63.6738 178.279 64.2207C179.359 64.7539 180.268 65.5195 181.006 66.5176C181.744 67.502 182.298 68.6914 182.667 70.0859C183.036 71.4668 183.221 73.0049 183.221 74.7002ZM178.279 75.1309V74.7002C178.279 73.6748 178.183 72.7246 177.991 71.8496C177.8 70.9609 177.499 70.1816 177.089 69.5117C176.679 68.8418 176.153 68.3223 175.51 67.9531C174.881 67.5703 174.122 67.3789 173.234 67.3789C172.359 67.3789 171.607 67.5293 170.978 67.8301C170.349 68.1172 169.822 68.5205 169.399 69.04C168.975 69.5596 168.647 70.168 168.414 70.8652C168.182 71.5488 168.018 72.2939 167.922 73.1006V77.0791C168.086 78.0635 168.366 78.9658 168.763 79.7861C169.159 80.6064 169.72 81.2627 170.445 81.7549C171.183 82.2334 172.126 82.4727 173.275 82.4727C174.163 82.4727 174.922 82.2812 175.551 81.8984C176.18 81.5156 176.693 80.9893 177.089 80.3193C177.499 79.6357 177.8 78.8496 177.991 77.9609C178.183 77.0723 178.279 76.1289 178.279 75.1309ZM197.507 86.4102C195.867 86.4102 194.383 86.1436 193.057 85.6104C191.745 85.0635 190.623 84.3047 189.694 83.334C188.778 82.3633 188.074 81.2217 187.581 79.9092C187.089 78.5967 186.843 77.1816 186.843 75.6641V74.8438C186.843 73.1074 187.096 71.5352 187.602 70.127C188.108 68.7188 188.812 67.5156 189.714 66.5176C190.617 65.5059 191.683 64.7334 192.913 64.2002C194.144 63.667 195.477 63.4004 196.912 63.4004C198.498 63.4004 199.886 63.667 201.076 64.2002C202.265 64.7334 203.249 65.4854 204.029 66.4561C204.822 67.4131 205.41 68.5547 205.792 69.8809C206.189 71.207 206.387 72.6699 206.387 74.2695V76.3818H189.243V72.834H201.506V72.4443C201.479 71.5557 201.301 70.7217 200.973 69.9424C200.659 69.1631 200.173 68.5342 199.517 68.0557C198.861 67.5771 197.986 67.3379 196.892 67.3379C196.072 67.3379 195.34 67.5156 194.698 67.8711C194.069 68.2129 193.542 68.7119 193.119 69.3682C192.695 70.0244 192.367 70.8174 192.134 71.7471C191.915 72.6631 191.806 73.6953 191.806 74.8438V75.6641C191.806 76.6348 191.936 77.5371 192.196 78.3711C192.469 79.1914 192.866 79.9092 193.385 80.5244C193.905 81.1396 194.534 81.625 195.272 81.9805C196.01 82.3223 196.851 82.4932 197.794 82.4932C198.984 82.4932 200.043 82.2539 200.973 81.7754C201.903 81.2969 202.709 80.6201 203.393 79.7451L205.997 82.2676C205.519 82.9648 204.897 83.6348 204.131 84.2773C203.366 84.9062 202.429 85.4189 201.322 85.8154C200.228 86.2119 198.956 86.4102 197.507 86.4102ZM215.444 68.5479V86H210.502V63.8105H215.157L215.444 68.5479ZM214.562 74.085L212.963 74.0645C212.976 72.4922 213.195 71.0498 213.619 69.7373C214.056 68.4248 214.658 67.2969 215.423 66.3535C216.203 65.4102 217.132 64.6855 218.213 64.1797C219.293 63.6602 220.496 63.4004 221.822 63.4004C222.888 63.4004 223.852 63.5508 224.713 63.8516C225.588 64.1387 226.334 64.6104 226.949 65.2666C227.578 65.9229 228.056 66.7773 228.384 67.8301C228.713 68.8691 228.877 70.1475 228.877 71.665V86H223.914V71.6445C223.914 70.5781 223.756 69.7373 223.442 69.1221C223.141 68.4932 222.697 68.0488 222.109 67.7891C221.535 67.5156 220.817 67.3789 219.956 67.3789C219.108 67.3789 218.349 67.5566 217.679 67.9121C217.009 68.2676 216.442 68.7529 215.977 69.3682C215.526 69.9834 215.177 70.6943 214.931 71.501C214.685 72.3076 214.562 73.1689 214.562 74.085ZM250.271 63.8105V86H245.309V63.8105H250.271ZM244.98 57.9863C244.98 57.2344 245.227 56.6123 245.719 56.1201C246.225 55.6143 246.922 55.3613 247.811 55.3613C248.686 55.3613 249.376 55.6143 249.882 56.1201C250.388 56.6123 250.641 57.2344 250.641 57.9863C250.641 58.7246 250.388 59.3398 249.882 59.832C249.376 60.3242 248.686 60.5703 247.811 60.5703C246.922 60.5703 246.225 60.3242 245.719 59.832C245.227 59.3398 244.98 58.7246 244.98 57.9863ZM268.434 79.9912C268.434 79.499 268.311 79.0547 268.065 78.6582C267.819 78.248 267.347 77.8789 266.65 77.5508C265.966 77.2227 264.954 76.9219 263.614 76.6484C262.439 76.3887 261.359 76.0811 260.374 75.7256C259.404 75.3564 258.57 74.9121 257.872 74.3926C257.175 73.873 256.635 73.2578 256.252 72.5469C255.869 71.8359 255.678 71.0156 255.678 70.0859C255.678 69.1836 255.876 68.3291 256.273 67.5225C256.669 66.7158 257.237 66.0049 257.975 65.3896C258.713 64.7744 259.609 64.2891 260.661 63.9336C261.728 63.5781 262.917 63.4004 264.23 63.4004C266.089 63.4004 267.682 63.7148 269.008 64.3438C270.348 64.959 271.373 65.7998 272.084 66.8662C272.795 67.9189 273.151 69.1084 273.151 70.4346H268.208C268.208 69.8467 268.058 69.2998 267.757 68.7939C267.47 68.2744 267.032 67.8574 266.445 67.543C265.857 67.2148 265.118 67.0508 264.23 67.0508C263.382 67.0508 262.678 67.1875 262.117 67.4609C261.571 67.7207 261.16 68.0625 260.887 68.4863C260.627 68.9102 260.497 69.375 260.497 69.8809C260.497 70.25 260.566 70.585 260.702 70.8857C260.853 71.1729 261.099 71.4395 261.441 71.6855C261.782 71.918 262.247 72.1367 262.835 72.3418C263.437 72.5469 264.189 72.7451 265.091 72.9365C266.786 73.292 268.242 73.75 269.459 74.3105C270.69 74.8574 271.633 75.5684 272.289 76.4434C272.946 77.3047 273.274 78.3984 273.274 79.7246C273.274 80.709 273.062 81.6113 272.638 82.4316C272.228 83.2383 271.626 83.9424 270.833 84.5439C270.04 85.1318 269.09 85.5898 267.983 85.918C266.889 86.2461 265.658 86.4102 264.291 86.4102C262.281 86.4102 260.579 86.0547 259.185 85.3438C257.79 84.6191 256.731 83.6963 256.006 82.5752C255.295 81.4404 254.94 80.2646 254.94 79.0479H259.718C259.773 79.9639 260.026 80.6953 260.477 81.2422C260.942 81.7754 261.516 82.165 262.199 82.4111C262.897 82.6436 263.614 82.7598 264.353 82.7598C265.241 82.7598 265.987 82.6436 266.588 82.4111C267.19 82.165 267.648 81.8369 267.962 81.4268C268.277 81.0029 268.434 80.5244 268.434 79.9912ZM290.349 79.9912C290.349 79.499 290.226 79.0547 289.98 78.6582C289.734 78.248 289.262 77.8789 288.565 77.5508C287.881 77.2227 286.87 76.9219 285.53 76.6484C284.354 76.3887 283.274 76.0811 282.289 75.7256C281.319 75.3564 280.485 74.9121 279.788 74.3926C279.09 73.873 278.55 73.2578 278.167 72.5469C277.785 71.8359 277.593 71.0156 277.593 70.0859C277.593 69.1836 277.791 68.3291 278.188 67.5225C278.584 66.7158 279.152 66.0049 279.89 65.3896C280.628 64.7744 281.524 64.2891 282.577 63.9336C283.643 63.5781 284.832 63.4004 286.145 63.4004C288.004 63.4004 289.597 63.7148 290.923 64.3438C292.263 64.959 293.288 65.7998 293.999 66.8662C294.71 67.9189 295.066 69.1084 295.066 70.4346H290.123C290.123 69.8467 289.973 69.2998 289.672 68.7939C289.385 68.2744 288.948 67.8574 288.36 67.543C287.772 67.2148 287.034 67.0508 286.145 67.0508C285.297 67.0508 284.593 67.1875 284.033 67.4609C283.486 67.7207 283.076 68.0625 282.802 68.4863C282.542 68.9102 282.413 69.375 282.413 69.8809C282.413 70.25 282.481 70.585 282.618 70.8857C282.768 71.1729 283.014 71.4395 283.356 71.6855C283.698 71.918 284.163 72.1367 284.75 72.3418C285.352 72.5469 286.104 72.7451 287.006 72.9365C288.702 73.292 290.158 73.75 291.374 74.3105C292.605 74.8574 293.548 75.5684 294.204 76.4434C294.861 77.3047 295.189 78.3984 295.189 79.7246C295.189 80.709 294.977 81.6113 294.553 82.4316C294.143 83.2383 293.541 83.9424 292.748 84.5439C291.955 85.1318 291.005 85.5898 289.898 85.918C288.804 86.2461 287.574 86.4102 286.206 86.4102C284.197 86.4102 282.495 86.0547 281.1 85.3438C279.705 84.6191 278.646 83.6963 277.921 82.5752C277.21 81.4404 276.855 80.2646 276.855 79.0479H281.633C281.688 79.9639 281.941 80.6953 282.392 81.2422C282.857 81.7754 283.431 82.165 284.115 82.4111C284.812 82.6436 285.53 82.7598 286.268 82.7598C287.157 82.7598 287.902 82.6436 288.503 82.4111C289.105 82.165 289.563 81.8369 289.877 81.4268C290.192 81.0029 290.349 80.5244 290.349 79.9912ZM313.167 80.7705V63.8105H318.129V86H313.454L313.167 80.7705ZM313.864 76.1562L315.525 76.1152C315.525 77.6055 315.361 78.9795 315.033 80.2373C314.705 81.4814 314.199 82.5684 313.515 83.498C312.832 84.4141 311.957 85.1318 310.89 85.6514C309.824 86.1572 308.546 86.4102 307.055 86.4102C305.975 86.4102 304.984 86.2529 304.082 85.9385C303.179 85.624 302.4 85.1387 301.744 84.4824C301.101 83.8262 300.602 82.9717 300.247 81.9189C299.891 80.8662 299.713 79.6084 299.713 78.1455V63.8105H304.656V78.1865C304.656 78.9932 304.752 79.6699 304.943 80.2168C305.134 80.75 305.394 81.1807 305.722 81.5088C306.05 81.8369 306.433 82.0693 306.871 82.2061C307.308 82.3428 307.773 82.4111 308.265 82.4111C309.673 82.4111 310.781 82.1377 311.587 81.5908C312.408 81.0303 312.989 80.2783 313.331 79.335C313.686 78.3916 313.864 77.332 313.864 76.1562ZM333.277 86.4102C331.637 86.4102 330.153 86.1436 328.827 85.6104C327.514 85.0635 326.393 84.3047 325.464 83.334C324.548 82.3633 323.844 81.2217 323.351 79.9092C322.859 78.5967 322.613 77.1816 322.613 75.6641V74.8438C322.613 73.1074 322.866 71.5352 323.372 70.127C323.878 68.7188 324.582 67.5156 325.484 66.5176C326.387 65.5059 327.453 64.7334 328.683 64.2002C329.914 63.667 331.247 63.4004 332.682 63.4004C334.268 63.4004 335.656 63.667 336.846 64.2002C338.035 64.7334 339.019 65.4854 339.799 66.4561C340.592 67.4131 341.179 68.5547 341.562 69.8809C341.959 71.207 342.157 72.6699 342.157 74.2695V76.3818H325.012V72.834H337.276V72.4443C337.249 71.5557 337.071 70.7217 336.743 69.9424C336.429 69.1631 335.943 68.5342 335.287 68.0557C334.631 67.5771 333.756 67.3379 332.662 67.3379C331.842 67.3379 331.11 67.5156 330.468 67.8711C329.839 68.2129 329.312 68.7119 328.888 69.3682C328.465 70.0244 328.137 70.8174 327.904 71.7471C327.685 72.6631 327.576 73.6953 327.576 74.8438V75.6641C327.576 76.6348 327.706 77.5371 327.966 78.3711C328.239 79.1914 328.636 79.9092 329.155 80.5244C329.675 81.1396 330.304 81.625 331.042 81.9805C331.78 82.3223 332.621 82.4932 333.564 82.4932C334.754 82.4932 335.813 82.2539 336.743 81.7754C337.673 81.2969 338.479 80.6201 339.163 79.7451L341.767 82.2676C341.289 82.9648 340.667 83.6348 339.901 84.2773C339.136 84.9062 338.199 85.4189 337.092 85.8154C335.998 86.2119 334.726 86.4102 333.277 86.4102Z" fill="#66002B"/>
</svg>
